<?xml version="1.0" encoding="UTF-8" standalone="no"?>
<!-- Created with Inkscape (http://www.inkscape.org/) -->

<svg
   version="1.1"
   id="svg1"
   width="672"
   height="672"
   viewBox="0 0 672 672"
   sodipodi:docname="205-UB-Crest-CMYK-Black.eps"
   xmlns:inkscape="http://www.inkscape.org/namespaces/inkscape"
   xmlns:sodipodi="http://sodipodi.sourceforge.net/DTD/sodipodi-0.dtd"
   xmlns="http://www.w3.org/2000/svg"
   xmlns:svg="http://www.w3.org/2000/svg">
  <defs
     id="defs1" />
  <sodipodi:namedview
     id="namedview1"
     pagecolor="#ffffff"
     bordercolor="#000000"
     borderopacity="0.25"
     inkscape:showpageshadow="2"
     inkscape:pageopacity="0.0"
     inkscape:pagecheckerboard="0"
     inkscape:deskcolor="#d1d1d1">
    <inkscape:page
       x="0"
       y="0"
       inkscape:label="1"
       id="page1"
       width="672"
       height="672"
       margin="0"
       bleed="0" />
  </sodipodi:namedview>
  <g
     id="g1"
     inkscape:groupmode="layer"
     inkscape:label="1">
    <path
       id="path1"
       d="m 4710.6,2871.06 c 3.48,109.71 -20.71,202.24 -48.65,265.9 -9.65,108.49 -43.69,203.22 -82.81,272.81 -16.36,31.56 -33.93,58.4 -51.15,79.68 -43.43,133.13 -119.71,233.79 -227.74,298.6 -5.06,3.06 -11.66,1.52 -14.86,-3.45 -1.57,-2.47 -2.85,-5.31 -3.99,-8.37 -1.8,-2.31 -3.63,-4.78 -5.23,-7.62 -5.94,-10.56 -9.32,-24.37 -9.81,-41.48 -12.88,13.99 -26.35,27.84 -41.05,41.34 -58.59,53.77 -129.31,99.43 -197.69,143.57 -84.02,54.28 -163.4,105.52 -191.04,156.78 -2.33,4.39 -7.29,6.59 -12.07,5.5 -2.78,-0.63 -4.85,-2.41 -6.36,-4.64 -6.98,-6.69 -12.78,-19.54 -13.1,-27.04 -2.58,-62 19.27,-181.31 100.5,-312.43 -5.7,5.09 -11.01,10.22 -15.53,15.43 -2.43,2.79 -6.01,3.63 -9.57,3.23 -1.44,0.32 -2.89,0.4 -4.39,-0.2 -8.66,-3.45 -16.62,-23.79 -16.2,-33.09 2.67,-61.93 84.1,-176.36 181.8,-279.46 -24.76,8.15 -46.27,15.24 -63.86,23.6 -2.97,1.41 -6.25,1.01 -9.18,-0.33 -0.94,-0.02 -1.92,-0.28 -3.03,-1.19 -6.56,-5.33 -15.78,-27.17 -13.84,-35.36 14.16,-59.45 60.16,-133.97 125.45,-207.17 -6.56,-52.03 -0.86,-105.49 16.93,-160.75 -12.38,17.53 -24.28,35.27 -34.84,53.33 -2.15,3.67 -6.16,5.76 -10.38,5.39 -4.17,-0.3 -7.8,-3.08 -9.33,-6.99 -0.14,-0.32 -0.18,-0.73 -0.33,-1.03 -4.43,-4.95 -8.04,-12.05 -9.93,-17.01 -26.25,-68.96 2.82,-202.81 50.5,-317.41 -34.71,34.75 -74.17,66.78 -119.58,92.6 -3.02,1.72 -6.62,1.93 -9.77,0.53 -2.19,-0.95 -3.73,-2.72 -4.91,-4.71 -5.38,-5.53 -10.76,-16.7 -12.06,-22.17 -17.53,-73.58 13.24,-224.56 72.84,-369.41 -16.34,-45.48 -25.45,-93.78 -25.03,-155.45 -1.77,3.18 -3.57,5.88 -5.31,8.93 -27.81,52.36 -57.65,91.94 -87.76,114.12 -2.69,1.99 -6.15,2.63 -9.34,1.78 -3.26,-0.94 -5.92,-3.2 -7.23,-6.29 -0.21,-0.5 -0.36,-1.13 -0.6,-1.64 -4.08,-5.05 -7.76,-11.97 -9.47,-15.98 -31.39,-73.3 -14.87,-204.87 14.01,-360.6 -0.28,0.48 -0.59,1.07 -0.92,1.5 -0.3,0.57 -0.66,1.08 -0.99,1.63 -2.83,4.99 -5.76,10.06 -8.49,14.86 -26.27,45.71 -47.01,81.79 -52.99,123.63 -0.69,4.72 -4.36,8.52 -9.1,9.24 -4.75,0.78 -9.43,-1.61 -11.56,-5.87 -0.48,-0.94 -0.89,-2.09 -1.35,-3.04 -3.32,-4.5 -6.39,-9.94 -8.43,-13.99 -28.43,-56.85 -51.27,-194.36 -28.68,-349.24 -12.58,20.8 -25.74,38.6 -39.18,51.37 -2.65,2.56 -6.33,3.57 -9.93,2.81 -3.54,-0.82 -6.51,-3.31 -7.82,-6.72 -0.04,-0.12 -0.1,-0.31 -0.14,-0.42 -4.46,-5.11 -8.27,-12.85 -10.07,-17.52 -28.24,-72.14 -51,-206.39 -49.31,-333.12 -9.73,13.75 -20.47,26.3 -32.47,37.28 -2.29,2.07 -5.34,3.12 -8.39,2.86 -3.12,-0.34 -5.94,-1.88 -7.81,-4.36 -1.22,-1.64 -2.34,-3.68 -3.53,-5.39 -0.89,-0.48 -1.8,-1.01 -2.51,-1.96 -34.92,-46.58 -69.05,-123.69 -89.37,-256.74 -7.02,36.9 -10.15,71.15 -2.4,93.09 1.54,4.41 0.18,9.32 -3.46,12.2 -3.61,2.92 -8.73,3.24 -12.68,0.72 -21.1,-13.17 -41.63,-38.47 -59.74,-70.68 -35.35,-55.19 -62.63,-135.83 -70.84,-214.76 -60.24,-43.64 -119.34,-112.2 -169.02,-196.919 -7.52,-12.859 -13.99,-25.652 -20.04,-38.34 -75.1,-19.441 -118.6,-53.82 -165.04,-106.051 -8.63,-9.75 -17.21,-19.8 -26.25,-30.48 -51.91,-61.09 -110.76,-130.301 -214.01,-166.699 -68.58,-24.25 -145.16,-40.469 -226.09,-54.59 -80.8,14.148 -157.06,30.418 -225.54,54.59 -103.22,36.398 -162.06,105.609 -213.94,166.699 -9.08,10.68 -17.64,20.73 -26.32,30.48 -46.42,52.231 -89.92,86.61 -164.98,106.051 -6.06,12.688 -12.53,25.481 -20.08,38.34 -49.63,84.749 -108.78,153.299 -169.03,196.949 -8.19,78.95 -35.49,159.65 -70.87,214.83 -18.09,32.15 -38.6,57.42 -59.68,70.58 -3.96,2.52 -9.04,2.2 -12.67,-0.72 -3.62,-2.88 -5.05,-7.79 -3.48,-12.2 7.74,-21.94 4.64,-56.16 -2.37,-93.05 -20.35,133.06 -54.49,210.12 -89.41,256.7 -0.7,0.95 -1.61,1.48 -2.5,1.98 -1.22,1.7 -2.32,3.73 -3.53,5.37 -1.85,2.48 -4.66,4.02 -7.75,4.36 -3.08,0.26 -6.14,-0.79 -8.42,-2.86 -12.01,-10.98 -22.76,-23.53 -32.5,-37.28 1.71,126.73 -21.07,260.98 -49.28,333.12 -1.83,4.67 -5.61,12.41 -10.06,17.49 -0.09,0.14 -0.12,0.32 -0.16,0.45 -1.34,3.41 -4.26,5.9 -7.83,6.72 -3.57,0.76 -7.29,-0.25 -9.93,-2.81 -13.41,-12.77 -26.6,-30.57 -39.19,-51.41 22.61,154.9 -0.26,292.43 -28.64,349.28 -2.04,4.05 -5.12,9.49 -8.43,13.99 -0.46,0.95 -0.91,2.1 -1.38,3.04 -2.15,4.26 -6.81,6.65 -11.56,5.87 -4.74,-0.72 -8.42,-4.52 -9.07,-9.24 -6,-41.84 -26.77,-77.92 -52.99,-123.63 -2.72,-4.73 -5.58,-9.75 -8.39,-14.66 -0.37,-0.65 -0.76,-1.17 -1.12,-1.83 -0.3,-0.43 -0.63,-1.02 -0.91,-1.5 28.9,155.73 45.45,287.3 14,360.6 -1.72,4.01 -5.41,10.98 -9.51,16 -0.2,0.53 -0.34,1.12 -0.56,1.62 -1.3,3.09 -3.97,5.35 -7.21,6.29 -3.22,0.85 -6.65,0.21 -9.37,-1.78 -30.08,-22.18 -59.97,-61.76 -87.73,-114.13 -1.77,-3.06 -3.57,-5.74 -5.31,-8.92 0.4,61.67 -8.72,109.97 -25.06,155.45 59.61,144.85 90.37,295.83 72.85,369.41 -1.29,5.45 -6.69,16.62 -12.04,22.14 -1.17,2.02 -2.71,3.79 -4.9,4.74 -3.16,1.4 -6.79,1.19 -9.81,-0.53 -45.37,-25.8 -84.86,-57.83 -119.527,-92.56 47.637,114.58 76.707,248.41 50.447,317.37 -1.88,4.96 -5.5,12.06 -9.93,17.01 -0.13,0.3 -0.22,0.71 -0.34,1.03 -1.49,3.91 -5.11,6.69 -9.322,6.99 -4.176,0.37 -8.203,-1.72 -10.332,-5.39 -10.594,-18.02 -22.469,-35.75 -34.832,-53.29 17.762,55.28 23.445,108.68 16.914,160.71 65.262,73.2 111.282,147.72 125.412,207.17 1.97,8.19 -7.25,30.03 -13.8,35.36 -1.14,0.91 -2.12,1.15 -3.07,1.19 -2.89,1.34 -6.19,1.74 -9.18,0.33 -17.59,-8.36 -39.09,-15.45 -63.83,-23.6 97.72,103.1 179.1,217.53 181.81,279.46 0.41,9.3 -7.58,29.64 -16.24,33.09 -1.5,0.6 -2.94,0.52 -4.38,0.2 -3.54,0.4 -7.15,-0.44 -9.57,-3.23 -4.53,-5.21 -9.83,-10.34 -15.54,-15.43 81.24,131.12 103.1,250.43 100.53,312.43 -0.31,7.5 -6.11,20.35 -13.13,27.04 -1.5,2.23 -3.55,4.01 -6.32,4.64 -4.82,1.09 -9.77,-1.11 -12.12,-5.5 -27.61,-51.26 -106.97,-102.5 -190.99,-156.78 -68.41,-44.14 -139.145,-89.8 -197.707,-143.57 -14.707,-13.49 -28.137,-27.35 -41.059,-41.34 -0.461,17.15 -3.886,30.92 -9.804,41.48 -1.625,2.84 -3.41,5.33 -5.239,7.62 -1.105,3.08 -2.429,5.9 -4.015,8.37 -3.196,4.97 -9.754,6.51 -14.836,3.45 -108.043,-64.81 -184.277,-165.47 -227.754,-298.61 -17.199,-21.29 -34.785,-48.17 -51.164,-79.75 -39.117,-69.57 -73.141,-164.28 -82.801,-272.73 -27.891,-63.66 -52.109,-156.19 -48.644,-265.9 -25.446,-85.81 -43.016,-225.78 18.968,-404 1.645,-4.71 3.614,-9.14 5.356,-13.8 -4.332,-53.58 -0.531,-106.75 11.426,-160.86 1.066,-85.55 29.461,-226.43 103.55,-372.8 5.946,-91 40.098,-200.42 105.813,-301.05 21.933,-79.59 86.437,-206.37 223.883,-317.06 26.265,-77.5 105.519,-181.37 238.677,-257.07 30.28,-70.971 114.53,-150.658 241.36,-201.619 31.38,-57.61 108.02,-147.781 285.06,-172.031 62.94,-65.891 219.75,-118.938 338.92,-125.54 46.33,-2.578 85.26,-0.128 122.89,2.192 63.11,3.969 123.34,7.41 209.22,-14.973 0.45,-0.179 0.88,-0.359 1.32,-0.519 35.42,-13.469 68.18,-24.5 100.89,-34.18 l -19.82,-3.211 c -147.87,-24.641 -331.4,-56.348 -402.23,-102.469 -1.38,-0.82 -9.24,-11.39 -9.97,-12.91 -10.94,-21.91 5.9,-59.308 22.34,-76.34 19.63,-20.351 44.14,-26.679 65.55,-16.988 0.42,0.238 0.78,0.438 1.18,0.668 79.56,48.43 264.64,116.512 433.02,149.91 32.7,6.512 62.26,12.41 89.88,18.082 27.61,-5.672 57.24,-11.57 89.95,-18.082 168.41,-33.398 361.16,-107.5 440.75,-155.918 0.36,-0.211 0.76,-0.383 1.15,-0.582 21.44,-9.73 31.89,-1.148 51.54,19.238 16.43,17.09 26.25,56.911 15.25,78.801 -0.73,1.41 -1.74,2.793 -3.02,3.77 -54.94,43.09 -247.92,88.179 -395.77,112.82 l -19.93,3.211 c 32.75,9.73 65.51,20.68 100.97,34.18 0.45,0.16 0.9,0.359 1.34,0.519 85.89,22.383 146.14,18.942 209.22,14.973 37.62,-2.32 76.57,-4.77 122.95,-2.192 119.11,6.602 275.91,59.649 338.89,125.54 177.02,24.25 253.63,114.421 285.05,172.031 126.79,50.961 211.09,130.648 241.31,201.619 133.16,75.7 212.43,179.57 238.71,257.07 137.43,110.69 201.93,237.47 223.88,317.06 65.7,100.63 99.88,210.05 105.84,301.05 74.06,146.37 102.49,287.25 103.52,372.8 11.98,54.11 15.78,107.28 11.46,160.86 1.71,4.66 3.67,9.09 5.32,13.8 61.98,178.22 44.4,318.19 18.96,404 z m -57.04,216.13 c 15.66,-52.06 26.53,-117.33 24.14,-192.13 -15.04,-171.25 -101.54,-355.8 -262.07,-448.15 0.25,9.44 0.49,18.9 0.44,28.25 0.6,0.79 1.55,1.28 1.94,2.26 21.89,53.14 41.4,128.41 45.26,206.74 77.06,36.08 176.32,152.42 189.4,374.05 0.59,9.77 0.72,19.37 0.89,28.98 z M 4413.5,2530.36 c -2.89,36.51 -8.24,71.82 -17.18,104.62 -0.98,2.8 -17.65,50.66 -36.46,93.98 -19.17,50.11 -45.16,102.97 -80.75,155.91 -68.23,101.41 -152.53,214.93 -170.2,334.59 0,0.04 0,0.1 0,0.16 26.86,-28.13 56.19,-55.68 87.35,-81.51 145.23,-120.29 221.79,-238.84 240.96,-373.07 0.23,-1.5 1.23,-2.58 1.97,-3.81 8.94,-80.9 -5.05,-165.15 -25.69,-230.87 z m 217.94,547.79 c -7.94,-138.27 -59.06,-272.17 -168.01,-340.96 -0.55,10.7 -1.76,21.36 -3.05,31.99 15.15,46.66 26.96,119.88 19.13,201.29 71.39,84.45 101.66,285.12 66.49,453.29 46.93,-80.16 89.76,-202.64 85.44,-345.61 z m -331.35,683.68 c 104.17,-66.32 174.45,-164.39 214.04,-300.01 26.92,-120.7 30.43,-275.16 -37.76,-418.01 l -4.52,-4.44 c 6.5,76.69 10.09,159.76 -29.78,252.79 2,91.38 -26.23,243.09 -133.14,384.21 -8.07,36.08 -12.39,67.22 -8.84,85.46 z m -449.07,199.76 c -6.2,24.89 -9.99,47.23 -11.8,66.25 38.08,-44.48 102.96,-86.73 176.49,-134.22 67.64,-43.64 137.56,-88.79 194.76,-141.31 147.45,-135.45 197.75,-302.63 207.7,-412.24 -18.53,32.01 -42.78,65.21 -73.96,99.7 -51.56,62.94 -135.42,142.93 -226.81,217.87 -108.59,89.04 -227.19,198.3 -266.38,303.95 z m 99.53,-341.89 c -22.43,32.16 -39.75,61.66 -49.27,85.58 37.47,-30.14 91.03,-58.3 151.21,-89.8 85.12,-44.6 181.66,-95.12 249.01,-162.46 140.03,-140.03 156.35,-258.25 151.7,-363.64 -11.21,31.38 -25.99,62.66 -45.65,92.82 -28.6,60.07 -80.18,131.75 -188.77,220.55 -63.69,52.15 -191.9,134.03 -268.23,216.95 z m 432.82,-441.35 c -23.97,31.26 -49.83,59.6 -75.19,84.61 11.03,-10.2 22.11,-20.9 33.32,-32.63 15.98,-16.7 29.63,-34.18 41.87,-51.98 z m -392.33,252.34 c 13.71,-5.21 28.26,-10.32 44.79,-15.73 31.95,-10.48 68.72,-22.63 108.82,-41.27 18.78,-16.49 37.49,-31.89 55.62,-45.82 72.31,-55.46 200.76,-169.79 248.39,-312.64 0.61,-1.8 1.99,-3.02 3.29,-4.26 13.15,-70.74 9.18,-137.88 -0.85,-189.37 -0.03,0.16 -0.08,0.28 -0.09,0.4 -7.11,82.79 -72.65,207.6 -177.44,317.74 -105.12,110.49 -239.14,189.94 -282.53,290.95 z m 61.17,-383.96 c 0.04,10.15 0.89,19.42 2.17,28.11 45.56,-71.49 105.05,-138.46 157.63,-194.05 80.86,-124.46 156.88,-251.85 181.19,-378.66 5.25,-135.46 -25.35,-287.74 -64.18,-397.12 1.8,19.83 2.65,39.61 2.15,59.04 0,0.56 -0.13,1.14 -0.19,1.7 l -2.19,11.74 c 4.61,123.92 -11.81,257.86 -74.35,414.19 -55.8,139.47 -197.63,317.98 -202.23,455.05 z m -90.72,-227.71 c 0.23,6.14 0.68,11.99 1.33,17.42 99.34,-61.06 176.85,-159.29 230.59,-257.77 74.58,-182.28 124.72,-403.6 97.7,-562.92 -0.08,-0.41 0.22,-0.75 0.21,-1.15 -15.79,-64.53 -39.6,-122.79 -61.88,-159.55 0.09,11.28 -0.08,22.35 -0.36,33.35 11.03,95.23 -0.93,242 -84.29,464.87 -64.76,173.28 -172.69,335.12 -183.3,465.75 z m 159.58,-1088.13 c 2.52,32.64 2.63,71.71 -0.91,118.17 -15.26,198.27 -101.19,385.97 -104.28,534.14 2.65,27.97 7.79,53.09 15.17,77.07 4.07,-9.14 8.23,-18.22 12.52,-27.23 l 14.09,-29.39 c 73.89,-153.61 157.33,-327.63 149.4,-574.32 -25.25,-104.6 -67.12,-164 -101.09,-196.68 7.59,25.95 13.55,52.75 16.84,80.36 0.13,0.85 0.13,1.7 0,2.57 -0.01,0.31 -0.66,6.1 -1.74,15.31 z m -234.27,677.46 c 41.66,-37.66 83.43,-112.63 118.46,-209.27 1.44,-8.61 2.88,-17.27 4.56,-26.35 8.61,-46.98 18.51,-86.73 28.08,-125.2 24.32,-97.88 47.29,-191.17 43.1,-383.59 -23.34,-129.69 -98.5,-235.64 -157.72,-287.96 1.51,3.33 3.12,6.69 4.55,10.02 0.46,1.02 19.4,35.29 19.47,36.48 0.09,1.18 0.66,5.63 1.57,12.52 45.42,115.4 49.03,292.03 31.52,405.87 -16.13,104.89 -84.04,322.33 -102.47,466.9 -1.41,39.93 1.02,74.2 8.88,100.58 z m -90.08,-260.21 c 0.75,2.73 1.51,5.39 2.29,7.96 10.47,-32.03 27.79,-62.36 47.19,-96.09 22.09,-38.43 47.64,-83.19 69.64,-141.95 29.12,-176.26 45.75,-396.91 -28.7,-567.88 -29.24,-49.63 -63.22,-96.56 -96.12,-132.9 19.27,33.66 34.74,68.65 42.96,103.61 0.1,0.47 0.2,0.99 0.26,1.5 0,0 1.98,20.93 4.6,48.94 7.27,40.85 10.97,83.1 11.82,125.46 1.11,11.96 1.83,19.57 1.83,19.67 0.52,9.44 -0.35,21.89 -2.26,36.24 -3.95,123.13 -26.81,239.49 -42.47,307.33 -29.85,129.27 -25.72,212.79 -11.04,288.11 z m -82.15,-764.92 c 0,149.02 -33.33,290.55 -20.6,410.51 5.05,22.52 10.64,43.06 16.57,60.72 35.7,-42.56 69.21,-120.57 91.7,-192.73 21.05,-136.46 27.54,-332.24 -61.82,-482.84 -25.28,-35.45 -53.66,-68.14 -80.84,-95.94 8.93,19.92 16.13,41.7 22.2,64.29 21.36,59.26 32.79,133.55 32.79,235.99 z m -123.07,145.89 c 2.16,3.69 4.46,6.83 6.68,10.25 24.78,-25.82 44.08,-58.62 57.08,-98.96 13.89,-135.72 24.79,-286.59 -61.46,-417.1 -36.01,-35.308 -92.62,-71.191 -146.08,-96.609 74.45,85.499 110.91,209.319 107.94,366.089 -2.4,127.76 16.37,185.53 35.84,236.33 z m -189.31,-345.95 c 2.67,59.89 11.83,99.03 24.29,128.76 11.63,22.94 24.51,42.53 37.88,56.97 -2.29,-46.01 13.53,-108.16 27.33,-160.92 l -0.83,-7.44 c -15.16,-136.57 -23.53,-211.811 -96.13,-297.55 0,-0.011 0,-0.011 0,-0.011 -21.85,-24.41 -44.12,-45.508 -68.62,-64.789 7.79,11.601 14.84,23.07 21.04,34.472 7.24,12.36 13.43,25.407 18.61,38.957 37.49,91.341 32.28,178.311 36.43,271.551 z M 3213.1,898.211 c 46.75,98.367 102.14,150.349 138.15,194.619 -5.16,-89.85 -34.67,-237.939 -161.86,-333.779 -25.1,-16.18 -50.46,-31.129 -73.59,-44.051 43.13,44.898 59.38,103.301 97.3,183.211 z m -1379.64,0 c 37.98,-79.91 54.2,-138.313 97.32,-183.211 -23.13,12.949 -48.48,27.871 -73.57,44.051 -127.23,95.84 -156.69,243.929 -161.89,333.779 36,-44.27 91.41,-96.252 138.14,-194.619 z m -251.24,470.679 c 13.41,-14.53 26.35,-34.18 38.02,-57.26 12.39,-29.69 21.49,-68.75 24.16,-128.47 4.12,-93.34 -1.05,-180.39 36.57,-271.89 5.07,-13.161 11.07,-25.829 18.08,-37.899 6.3,-11.629 13.46,-23.351 21.4,-35.16 -24.52,19.309 -46.82,40.469 -68.71,64.918 -72.49,85.66 -80.84,160.921 -96,297.401 l -0.84,7.44 c 13.83,52.76 29.62,114.91 27.32,160.92 z m -190.89,71.42 c 12.96,40.39 32.3,73.2 57.08,99.05 2.21,-3.4 4.51,-6.52 6.65,-10.22 19.49,-50.79 38.29,-108.56 35.9,-236.36 -3,-156.77 33.46,-280.59 107.94,-366.089 -53.46,25.418 -110.04,61.278 -146.05,96.569 -86.29,130.51 -75.38,281.34 -61.52,417.05 z m -55.28,414.14 c 5.92,-17.66 11.52,-38.14 16.54,-60.64 12.8,-119.97 -20.59,-261.54 -20.59,-410.59 0,-102.44 11.45,-176.71 32.82,-235.96 6.06,-22.61 13.26,-44.4 22.18,-64.3 -27.21,27.79 -55.58,60.5 -80.84,95.98 -89.36,150.66 -82.87,346.46 -61.8,482.92 22.55,72.12 56,150.06 91.69,192.59 z m -135.67,205.56 c 19.4,33.72 36.73,64.06 47.23,96.05 0.81,-2.63 1.59,-5.4 2.38,-8.23 14.57,-75.22 18.64,-158.69 -11.17,-287.8 -15.63,-67.82 -38.5,-184.16 -42.46,-307.24 -1.94,-14.38 -2.79,-26.87 -2.27,-36.33 0,-0.1 0.73,-7.74 1.87,-19.7 0.81,-42.46 4.54,-84.76 11.85,-125.67 2.63,-27.87 4.57,-48.7 4.57,-48.7 0.05,-0.51 0.15,-1.03 0.25,-1.5 8.23,-34.96 23.67,-69.96 42.99,-103.64 -32.95,36.33 -66.87,83.25 -96.13,132.87 -74.52,170.96 -57.87,391.59 -28.77,567.87 22.02,58.8 47.57,103.59 69.66,142.02 z m -159.03,139.18 c 35.01,96.6 76.76,171.54 118.4,209.16 7.92,-26.35 10.35,-60.63 8.95,-100.54 -18.43,-144.6 -86.38,-362.05 -102.51,-466.94 -17.52,-113.85 -13.9,-290.51 31.53,-405.9 0.89,-6.87 1.47,-11.31 1.57,-12.49 0.1,-1.19 19,-35.46 19.47,-36.48 1.43,-3.33 3.05,-6.65 4.55,-10.01 -59.24,52.33 -134.392,158.35 -157.708,288.05 -4.215,192.36 18.765,285.64 43.088,383.49 9.57,38.47 19.46,78.22 28.1,125.2 1.67,9.11 3.12,17.83 4.56,26.46 z m -115.842,-468.4 c -1.055,-9.14 -1.715,-14.9 -1.742,-15.21 -0.086,-0.87 -0.086,-1.72 0.011,-2.57 3.328,-27.63 9.286,-54.41 16.883,-80.36 -34.039,32.68 -75.902,92.09 -101.148,196.75 -7.899,246.67 75.547,420.64 149.406,574.25 l 14.102,29.39 c 4.31,9.01 8.44,18.09 12.52,27.21 7.39,-24.01 12.54,-49.15 15.16,-77.11 -3.1,-148.18 -89.016,-335.85 -104.247,-534.08 -3.582,-46.5 -3.437,-85.61 -0.945,-118.27 z m 158.272,1105.65 c 0.64,-5.43 1.08,-11.26 1.29,-17.37 -10.58,-130.65 -118.504,-292.5 -183.281,-465.8 -83.316,-222.84 -95.32,-369.55 -84.297,-464.79 -0.273,-10.99 -0.445,-22.1 -0.359,-33.37 -22.293,36.76 -46.082,94.98 -61.871,159.52 -0.043,0.4 0.289,0.72 0.203,1.12 -27,159.29 23.113,380.56 97.691,562.83 53.742,98.48 131.258,196.78 230.624,257.86 z m -91.538,238.42 c 1.266,-8.71 2.102,-17.99 2.145,-28.17 -4.621,-137.03 -146.426,-315.54 -202.223,-455.01 -62.551,-156.34 -78.957,-290.32 -74.363,-414.22 l -2.188,-11.71 c -0.074,-0.56 -0.16,-1.14 -0.16,-1.7 -0.531,-19.43 0.348,-39.21 2.145,-59.04 -38.86,109.37 -69.442,261.61 -64.172,397.04 24.234,126.81 100.254,254.23 181.168,378.7 52.57,55.63 112.066,122.6 157.648,194.11 z M 650.301,2634.98 c -8.965,-32.8 -14.336,-68.11 -17.227,-104.64 -20.625,65.68 -34.586,149.91 -25.691,230.79 0.777,1.25 1.785,2.37 2.015,3.91 19.172,134.23 95.723,252.78 240.938,373.07 31.144,25.83 60.504,53.38 87.348,81.51 0,-0.04 0,-0.08 0.027,-0.12 -17.688,-119.66 -101.969,-233.22 -170.199,-334.63 -35.637,-52.97 -61.629,-105.88 -80.797,-156.04 -18.856,-43.27 -35.481,-91.05 -36.414,-93.85 z m 360.449,779.98 c 16.54,5.41 31.15,10.52 44.85,15.77 -43.44,-101.05 -177.471,-180.5 -282.592,-290.99 -104.746,-110.12 -170.285,-234.91 -177.426,-317.69 -0.016,-0.13 -0.059,-0.25 -0.102,-0.41 -10.003,51.47 -13.988,118.59 -0.847,189.33 1.336,1.22 2.734,2.46 3.324,4.26 47.625,142.85 176.074,257.18 248.391,312.64 18.136,13.95 36.832,29.33 55.597,45.82 40.098,18.64 76.856,30.79 108.805,41.27 z M 663.555,3178.78 c 12.164,17.65 25.707,34.98 41.566,51.55 11.039,11.59 22.004,22.17 32.899,32.27 -25.129,-24.83 -50.704,-52.91 -74.465,-83.82 z m 481.775,526.48 c -9.56,-23.92 -26.87,-53.43 -49.32,-85.61 -76.35,-82.9 -204.526,-164.78 -268.213,-216.9 -108.574,-88.8 -160.141,-160.51 -188.723,-220.57 -19.687,-30.14 -34.469,-61.42 -45.691,-92.82 -4.61,105.37 11.672,223.63 151.746,363.66 67.297,67.34 163.824,117.86 249,162.46 60.171,31.5 113.711,59.66 151.201,89.78 z m -309.228,47.05 c 57.211,52.52 127.14,97.67 194.768,141.31 73.54,47.49 138.45,89.74 176.51,134.19 -1.8,-18.99 -5.62,-41.33 -11.78,-66.22 -39.2,-105.65 -157.82,-214.91 -266.409,-303.95 -91.406,-74.96 -175.281,-154.99 -226.836,-217.91 -31.171,-34.46 -55.378,-67.67 -73.902,-99.66 9.93,109.61 60.203,276.79 207.649,412.24 z m -303.7,-290.69 c 39.547,135.72 109.868,233.87 214.078,300.26 3.555,-18.29 -0.718,-49.43 -8.835,-85.53 -106.93,-141.15 -135.141,-292.9 -133.141,-384.28 -39.852,-93 -36.266,-176.05 -29.734,-252.72 l -4.547,4.46 c -68.145,142.77 -64.707,297.18 -37.821,417.81 z m -31.808,-37.86 c -35.145,-168.2 -4.922,-368.86 66.492,-453.31 -7.801,-81.37 3.973,-154.57 19.156,-201.24 -1.308,-10.66 -2.519,-21.3 -3.082,-32.02 -108.859,68.76 -159.949,202.47 -167.969,340.6 -4.418,143.09 38.442,265.73 85.403,345.97 z M 393.059,3087.19 c 0.129,-9.61 0.3,-19.21 0.89,-28.98 13.039,-221.67 112.344,-338.01 189.399,-374.05 3.816,-78.33 23.332,-153.6 45.222,-206.74 0.403,-0.99 1.336,-1.48 1.985,-2.27 -0.059,-9.37 0.187,-18.8 0.429,-28.24 -160.613,92.39 -247.109,277.06 -262.093,448.39 -2.371,74.7 8.523,139.91 24.168,191.89 z m -39.45,-268.25 c 2.086,-14.37 4.504,-28.89 7.668,-43.68 49.036,-229.88 191.918,-340.8 272.387,-381.28 5.813,-73.52 19.387,-146.99 37.176,-212.99 -102.703,43.75 -191.301,132.13 -251.633,239.86 -12.262,24.86 -23.516,51.09 -33.203,78.96 -45.203,129.98 -45.406,238.88 -32.395,319.13 z m 342.704,-720.25 c 11.714,-32.74 24.207,-61.75 36.773,-85.99 16.273,-67.99 41.375,-129.41 65.394,-169.06 -176.574,99.23 -286.574,224.04 -348.648,345.38 -38.109,82.78 -56.977,160.71 -57.781,238.14 79.5,-171.74 211.347,-278.15 304.262,-328.47 z m -278.907,108.79 c 21.707,-52.24 50.793,-106.15 87.91,-163 107.954,-165.31 245.758,-241.43 328.485,-274.34 34.164,-99.7 83.558,-150.21 116.316,-174.26 0.934,-0.69 2.059,-0.81 3.153,-1.17 3.121,-8.36 6.375,-16.59 9.8,-24.69 -176.996,71.88 -309.328,174.48 -401.109,287.32 -81.816,124.3 -125.281,251.95 -144.555,350.14 z m 146.715,-470.79 c -25.058,53.12 -41.562,106.66 -50.043,156.53 22.02,-37.81 47.008,-75.62 75.82,-112.55 134.793,-172.89 295.528,-236.4 400.372,-266.74 44.86,-81.63 101.82,-143.79 141.45,-172.69 -81.53,38.92 -194.743,81.65 -298.454,135.17 -76.868,39.68 -196.996,135.44 -269.145,260.28 z m 182.637,-314.35 c -51.512,55.58 -86.485,111.22 -108.778,159.23 29.954,-35.61 64.29,-69.12 103.739,-98.84 99.894,-75.32 201.621,-110.92 291.341,-142.28 51.9,-18.17 99.43,-35.18 142.75,-57.27 45.65,-67.96 101.99,-128.89 147.55,-162.27 0.09,-0.1 0.17,-0.23 0.27,-0.3 -62.17,34.94 -241.31,95.95 -369.786,163.92 -74.84,39.65 -147.735,85.74 -207.086,137.81 z m 211.504,-254.97 c -52.301,45.9 -89.032,94.6 -109.824,137.05 16.292,-11.64 33.16,-23.15 51.277,-34.22 106.175,-64.78 213.575,-105.41 308.345,-141.29 65.12,-24.65 124.18,-47.35 176.32,-74.32 19.85,-19.53 38.62,-36.28 54.43,-49.1 0.49,-0.42 1.14,-0.28 1.69,-0.58 3.87,-3.71 7.9,-7.398 12.13,-11.07 -48.44,7.2 -132.12,19.12 -257.65,60.55 -77.63,25.63 -163.98,60.98 -236.718,112.98 z M 1204.93,941.332 c -56.72,35.5 -97.61,76.618 -120.42,115.838 27.3,-13.45 56.42,-25.81 87.78,-36.44 134.27,-45.468 222.6,-56.558 293.57,-65.5 17.18,-2.14 32.87,-4.261 48.04,-6.55 39.91,-25.438 84.08,-47.551 123.28,-62.039 21.53,-23.852 43.15,-44 65.2,-61.789 -87.23,17.789 -225.95,33.027 -332.94,55.089 -58.79,12.118 -114.89,32.668 -164.51,61.391 z m 346.29,-205.48 c -39.45,4.546 -75.56,13.628 -107.74,26.839 -60.32,28.739 -96.72,66.809 -118.15,98.848 18.05,-6.047 36.62,-11.648 56.12,-16.418 71.11,-17.461 138.89,-27.539 204.44,-37.223 68.7,-10.218 134.89,-20.546 198.66,-38.296 21.65,-12.102 44.03,-23.332 67.65,-34.11 0.47,-0.242 0.98,-0.242 1.48,-0.371 6.29,-3.992 12.56,-7.859 18.81,-11.68 -98.64,15.289 -191.46,-2.632 -321.27,12.411 z m 474.06,-134.153 c -25.23,-1.519 -51.18,-3.008 -80.5,-2.758 -24.7,1.278 -50.47,2.957 -78.45,6.059 -9.2,1.031 -17.72,2.5 -26.47,3.77 -89.36,16.46 -179.61,52.359 -228.59,90.742 54.13,-4.453 101.37,-3.121 146.82,-1.481 59.65,2.188 113.81,4.008 173.75,-8.781 26.2,-14.379 49.11,-26.168 64.91,-34.281 l 4.49,-2.231 c 26.73,-18.566 53.01,-34.636 79.03,-48.777 -18.61,-0.332 -36.77,-1.16 -54.99,-2.262 z m -61.53,-291.058 c -2.26,-0.2 -4.58,0.23 -6.85,0.929 -3.37,2.481 -6.03,4.91 -7.47,6.41 -12.39,12.879 -22.25,38.04 -19.05,49.352 49.55,35.828 236.37,78.848 396.71,105.59 l 36.9,5.93 c 14.02,-4.461 36.49,-10.922 66.05,-17.762 -36.1,-7.27 -70.32,-14.41 -99.28,-21.211 C 2206.54,410.648 2059.4,358.5 1963.75,310.641 Z m 1145.4,59.281 c 9.48,-28.383 -13.23,-63.082 -27.59,-61.832 -73,41.519 -241.53,102.558 -365.73,131.789 -91.38,21.5 -232.97,45.973 -331.37,69.043 -44.33,11.91 -86.92,25.5 -134.24,43.519 -80.48,30.649 -156.21,62.489 -236.43,118.219 -0.27,0.18 -0.46,0.469 -0.73,0.66 -1.63,0.95 -2.97,2.102 -4.51,3.11 -4.5,3.16 -8.99,6.441 -13.54,9.769 -34.25,28.711 -50.68,71.313 -70.54,123.539 -6.2,16.223 -12.88,33.492 -20.43,51.231 7.65,-2.43 14.88,-5.11 21.84,-7.91 37.08,-24.309 72.94,-63.668 129.55,-134.418 45.12,-56.403 118.86,-107.922 189.86,-136.219 14.15,-7.063 28.9,-13.703 44.89,-19.363 102.19,-36.008 220.01,-54.758 344.75,-74.508 l 84.55,-13.629 c 158.91,-26.492 338.36,-67.453 389.67,-103 z m -312.8,182.519 c -48.21,-18.382 -91.57,-32.101 -136.84,-44.16 -2.92,-0.66 -6.07,-1.371 -9.03,-2.043 l -12.11,1.942 c -17.61,2.812 -35.06,5.59 -52.36,8.379 60.13,11.91 117.46,25.851 170.41,44.5 15.98,5.66 30.75,12.3 44.9,19.363 70.98,28.297 144.71,79.816 189.86,136.219 56.57,70.75 92.45,110.109 129.53,134.429 6.98,2.821 14.19,5.469 21.84,7.899 -7.54,-17.731 -14.24,-35.008 -20.4,-51.231 -19.91,-52.199 -36.33,-94.816 -70.55,-123.496 -4.65,-3.441 -9.3,-6.812 -13.92,-10.051 -1.43,-0.929 -2.62,-1.98 -4.12,-2.871 -0.28,-0.179 -0.44,-0.441 -0.7,-0.621 -80.24,-55.738 -156,-87.609 -236.51,-118.258 z m 410.41,56.329 c -8.8,-1.27 -17.29,-2.739 -26.5,-3.77 -27.95,-3.102 -53.75,-4.781 -78.46,-6.059 -29.29,-0.25 -55.27,1.239 -80.5,2.758 -18.22,1.071 -36.37,1.93 -54.98,2.262 26.02,14.141 52.32,30.211 79.06,48.777 l 4.45,2.231 c 15.83,8.113 38.73,19.902 64.92,34.261 59.94,12.809 114.13,10.989 173.77,8.801 45.46,-1.64 92.67,-2.972 146.8,1.481 -48.98,-38.383 -139.23,-74.282 -228.56,-90.742 z m 396.34,153.921 c -32.21,-13.211 -68.29,-22.293 -107.72,-26.839 -129.82,-15.043 -222.64,2.878 -321.28,-12.411 6.25,3.821 12.52,7.688 18.81,11.68 0.51,0.129 1,0.129 1.5,0.371 23.62,10.778 46,22.008 67.67,34.137 63.73,17.73 129.98,28.082 198.64,38.269 65.56,9.684 133.33,19.762 204.41,37.223 19.53,4.77 38.11,10.371 56.11,16.418 -21.4,-32.039 -57.84,-70.117 -118.14,-98.848 z m 238.48,178.547 c -49.61,-28.636 -105.66,-49.218 -164.43,-61.297 -106.99,-22.062 -245.7,-37.3 -332.95,-55.089 22.04,17.789 43.68,37.937 65.21,61.789 39.19,14.488 83.36,36.601 123.26,62.039 15.21,2.289 30.91,4.41 48.08,6.55 70.97,8.942 159.31,20.032 293.54,65.5 31.36,10.63 60.48,22.99 87.79,36.47 -22.82,-39.29 -63.73,-80.399 -120.5,-115.962 z m 246.75,226.142 c -72.72,-51.98 -159.08,-87.36 -236.74,-112.99 -125.52,-41.43 -209.2,-53.35 -257.64,-60.55 4.23,3.672 8.26,7.36 12.13,11.06 0.55,0.31 1.19,0.17 1.71,0.59 15.81,12.82 34.57,29.57 54.4,49.07 52.15,27 111.2,49.7 176.32,74.35 94.75,35.88 202.21,76.51 308.35,141.29 18.14,11.07 35,22.58 51.32,34.22 -20.81,-42.45 -57.55,-91.14 -109.85,-137.04 z m 211.49,254.94 c -59.32,-52.05 -132.2,-98.14 -207.07,-137.79 -128.51,-67.98 -307.63,-129.01 -369.81,-163.92 0.1,0.07 0.19,0.2 0.28,0.27 45.56,33.41 101.91,94.34 147.59,162.34 43.32,22.05 90.85,39.08 142.67,57.23 89.76,31.36 191.5,66.96 291.38,142.28 39.48,29.73 73.81,63.28 103.81,98.89 -22.32,-48.03 -57.3,-103.67 -108.85,-159.3 z m 182.67,314.4 c -72.17,-124.87 -192.27,-220.63 -269.18,-260.31 -103.67,-53.52 -216.93,-96.3 -298.48,-135.21 39.64,28.94 96.63,91.07 141.48,172.73 104.89,30.34 265.59,93.85 400.4,266.74 28.78,36.93 53.77,74.74 75.83,112.55 -8.48,-49.87 -25,-103.38 -50.05,-156.5 z m 2.17,120.63 c -91.81,-112.82 -224.11,-215.43 -401.12,-287.33 3.44,8.1 6.68,16.33 9.8,24.69 1.06,0.38 2.21,0.48 3.16,1.17 32.79,24.05 82.13,74.56 116.31,174.26 82.72,32.94 220.53,109.03 328.45,274.34 37.13,56.89 66.22,110.8 87.95,163.1 -19.3,-98.21 -62.73,-225.88 -144.55,-350.23 z m 112.11,331.68 c -62.06,-121.34 -172.07,-246.14 -348.66,-345.39 24.02,39.65 49.13,101.12 65.41,169.13 12.6,24.25 25.06,53.2 36.75,85.92 92.91,50.32 224.71,156.73 304.26,328.43 -0.81,-77.41 -19.66,-155.29 -57.76,-238.09 z m 63.82,310.78 c -9.66,-27.84 -20.91,-54.04 -33.15,-78.89 -60.32,-107.74 -148.94,-196.14 -251.67,-239.93 17.77,66 31.37,139.47 37.17,212.99 80.45,40.48 223.32,151.4 272.39,381.28 3.15,14.79 5.57,29.27 7.65,43.62 13.01,-80.24 12.8,-189.13 -32.39,-319.07"
       style="fill:#231f20;fill-opacity:1;fill-rule:nonzero;stroke:none"
       transform="matrix(0.13333333,0,0,-0.13333333,0,672)" />
    <path
       id="path2"
       d="m 3746.5,3325.39 -1.18,26.4 H 1302.66 l -1.16,-26.4 C 1238.26,1904.33 1611.03,1037.49 2510.14,514.672 l 13.86,-8.082 13.89,8.082 C 3437,1037.45 3809.74,1904.33 3746.5,3325.39 Z M 3554.63,1892.9 c -10.44,-35.52 -21.65,-70.43 -33.36,-104.89 -2.58,-7.5 -4.97,-15.12 -7.59,-22.58 -11.87,-33.99 -24.52,-67.3 -37.6,-100.18 -5.79,-14.55 -11.83,-28.9 -17.88,-43.22 -7.54,-17.92 -15.34,-35.55 -23.23,-53.11 -23.21,-51.41 -47.95,-101.33 -74.35,-149.82 -55.23,41.26 -836.62,625.03 -836.62,625.03 0,0 -781.24,-583.67 -836.62,-625.03 -26.51,48.79 -51.41,99.02 -74.72,150.76 -7.65,17.02 -15.23,34.09 -22.53,51.48 -6.17,14.66 -12.36,29.33 -18.3,44.21 -13.01,32.7 -25.58,65.83 -37.42,99.63 -2.68,7.66 -5.17,15.55 -7.79,23.28 -11.54,34.09 -22.65,68.58 -33,103.71 -0.85,2.88 -1.74,5.75 -2.58,8.63 31.25,23.39 1001.43,748.21 1032.96,771.76 31.53,-23.55 1001.83,-748.48 1033,-771.76 -0.79,-2.63 -1.6,-5.26 -2.37,-7.9 z M 2524,571.102 c -351,206.918 -619.01,468.988 -809.74,799.468 162.38,121.24 782.14,583.99 809.74,604.62 27.67,-20.68 648.66,-485.17 809.35,-605.34 C 3142.64,1039.7 2874.78,777.879 2524,571.102 Z M 3572.88,1957.23 2524,2741.52 1474.94,1958.11 c -84.01,310.66 -125.01,665.07 -125.01,1069.77 0,87 2.4,176.99 6.16,268.67 52.16,0 2283.68,0 2335.87,0 3.73,-91.68 6.16,-181.67 6.16,-268.67 0,-405.09 -41.08,-759.81 -125.24,-1070.65"
       style="fill:#231f20;fill-opacity:1;fill-rule:nonzero;stroke:none"
       transform="matrix(0.13333333,0,0,-0.13333333,0,672)" />
    <path
       id="path3"
       d="m 3755.44,3941.16 c 25.81,-1.66 7.89,17.07 -5.87,28.86 -13.73,11.76 -15.7,37.24 -38.11,66.67 -17.5,22.93 -41.52,30.79 -61.82,34.12 -31.37,53.11 -43.92,127.51 -74,182.58 -32.53,59.5 -77.74,93.56 -117.8,106.2 -8.58,34.77 -24.77,71.04 -67.91,95.99 -32.86,18.99 -115.65,38.49 -260.49,61.38 l -72.36,11.17 c -57.9,8.88 -117.8,18.04 -150.82,24.23 -27.41,5.12 -53.33,15.67 -83.31,27.85 -19.95,8.09 -42.53,17.29 -68.28,25.84 -60.69,20.24 -136.97,29.92 -176.69,30.9 l -22.55,20.06 c -23.37,20.76 -75.52,25.91 -126.98,29.4 -6.9,0.45 -13.39,0.89 -17.37,1.34 0.15,1.74 0.57,3.87 1.16,5.55 1.48,4.13 1.28,8.72 -0.59,12.65 -1.85,3.93 -5.21,7.03 -9.3,8.5 -32.33,11.53 -95.03,13.15 -140.86,14.33 -16.73,0.45 -31.23,0.81 -37.47,1.58 -12.18,1.53 -15.83,10.78 -16.48,12.6 -1.79,5.43 -6.41,9.92 -12,11.24 -40.71,9.38 -129.74,18.76 -208.27,6.2 -58.65,-9.37 -97.83,-33.94 -129.29,-53.64 -10.89,-6.85 -20.29,-12.76 -29.18,-17.19 -24.99,-12.49 -36.47,-4.99 -36.95,-4.66 -5.47,3.73 -13.3,4.32 -18.85,0.77 -43.45,-27.93 -76.99,-88.95 -86.8,-126.25 -10.29,-5.51 -29.09,-16.93 -43.39,-33.65 -11.55,-13.42 -21.32,-33.1 -29.95,-50.49 -5.63,-11.36 -11.47,-23.09 -15.65,-28.29 -2.14,-2.71 -12.65,-1.29 -19.73,1.77 -6.2,2.65 -13.47,1.32 -18.22,-3.43 -1.58,-1.58 -38.47,-38.7 -54.6,-74.14 -5.16,-11.44 -11.31,-26.77 -17.81,-43.02 -4.87,-12.16 -10.23,-25.26 -15.61,-37.97 -45.37,3.91 -87.45,-7.4 -111.37,-27.34 -11.51,-9.62 -32.91,-27.46 -23.57,-48.17 8.89,-19.66 33.26,-15.94 42.44,-14.52 1.77,0.27 7.04,0.99 14.46,1.46 -17.27,-12.28 -35.21,-26.51 -50.81,-44.31 -17.14,10.31 -29,20.59 -38.7,10.88 -10.48,-10.47 -1.24,-36.79 11.47,-53.01 -28.18,-59.7 -14.48,-111.36 -0.69,-145.78 10.5,-26.27 40.87,-51.83 55.43,-64.14 1.93,-1.63 3.88,-3.29 4.87,-4.18 1.24,-2.09 3.67,-8.15 5.5,-12.73 5.26,-13.21 12.49,-31.34 23.72,-46.3 18.36,-24.49 47.78,-41.68 75.68,-45.04 8.61,-14.19 28.17,-44.39 47.64,-60.32 31.43,-25.67 60.37,-38.7 85.59,-48.42 30.66,-68.68 93.94,-66.93 116.5,-60.1 12.76,3.91 24.83,11.36 35.5,17.9 9.06,5.53 20.3,12.44 25.64,12.44 10.67,0 29.85,-1.66 38.8,-12.8 6.02,-7.52 12.42,-13.5 18.14,-18.78 5.68,-5.31 11.06,-10.33 13.14,-14.47 0.89,-1.78 2.23,-5.84 3.42,-9.38 4.78,-14.38 10.74,-32.26 25.72,-38.44 5.15,-2.13 13.3,-3.61 23.07,1.26 41.97,21.06 57.25,87.32 55.34,121.69 2.68,2.91 5.04,6.4 6.62,10.62 3.97,10.13 3.97,22.33 0.56,33.97 3.89,2.68 7.3,5.6 10.43,8.39 3.47,3.12 6.93,6.05 11.17,8.93 17.01,-0.03 24.58,-7.79 26.05,-13.81 5.49,-21.92 8.22,-76.73 10.97,-104.12 2.72,-27.4 47.95,-83.57 72.62,-102.75 24.64,-19.2 68.49,-73.08 82.19,-70.34 10.97,-16.44 43.86,-35.6 60.31,-41.09 18.61,-6.22 41.07,40.18 43.84,62.09 6.46,51.73 -7.33,98.64 -29.23,104.15 -21.92,5.48 -34.27,6.85 -34.27,6.85 0,0 -32.97,16.1 -28.79,31.53 4.12,15.06 2.77,21.91 -8.2,32.86 -3.77,3.77 6.48,10.32 17.2,16.25 15.77,3.49 30.51,11.19 37.88,23.99 5.02,1.98 22.36,-0.1 34.01,-1.53 12.06,-1.45 25.37,-3.03 38.6,-3.12 19.94,-41.88 64.92,-99.22 103.19,-145.85 l 5.73,-7 c 12.57,-15.48 20.6,-34.88 23.87,-57.69 1.44,-9.97 -3.47,-34.57 -7.93,-51.53 -19.9,-17.95 -46.69,-56.71 -49.69,-89.92 -0.44,-4.6 1.09,-9.14 4.23,-12.54 3.09,-3.45 7.51,-5.35 12.12,-5.35 h 132.93 c 4.33,0 8.52,1.72 11.61,4.79 14.9,14.89 21.49,39.25 19.4,70.8 15.86,9.4 42,29.91 32.51,58.4 -2.34,7.11 -5.48,13.88 -8.24,19.86 -9.03,19.61 -8.58,22.28 -4.85,25.48 25.13,21.53 35.07,57.09 23.64,84.54 -9.24,22.21 -2.77,33.04 20.11,52.42 20.15,17.03 29.46,39.89 27.16,64.91 22.75,0.12 36.4,9.01 44.2,17.69 7.11,7.89 11.35,17.94 12.36,28.24 18.97,3.2 52.16,10.13 84.55,23.47 11.82,4.87 29.23,9.57 49.44,15.02 17.47,4.71 37.25,10.04 56.54,16.42 25.57,4.79 53.72,9.77 67.2,9.35 l 16.19,-0.4 c 3.07,-0.09 6.78,-0.17 10.55,-0.29 8.39,-29.13 26.76,-71.88 43.18,-90.66 19.17,-21.91 41.09,-65.75 38.37,-82.19 -2.74,-16.42 -10.97,-109.61 -19.2,-126.07 -8.2,-16.42 -43.84,-65.96 -49.29,-79.44 -27.43,-27.41 -66.68,-104.13 -25.59,-103.22 h 126.98 c 20.98,0 19.17,48.42 21.89,78.54 8.22,19.18 46.6,30.17 43.85,52.06 -2.73,21.93 13.67,43.87 30.14,63.02 16.46,19.2 76.72,68.55 82.22,98.69 5.47,30.1 -5.5,76.7 10.97,95.9 4.52,5.25 11.05,11.96 16.92,18.73 1.6,-0.37 3.46,-0.91 4.91,-1.18 7.25,-1.25 14.33,-4.11 21.83,-7.17 9.43,-3.85 20.09,-8.19 32.95,-10.1 14.95,-4.82 71.31,-70.42 94.24,-109.67 22.35,-38.37 58.4,-118.4 55.94,-180.83 -29.65,-33.57 -39.68,-79.81 -40.11,-81.84 -1.04,-4.82 0.2,-9.89 3.31,-13.74 3.13,-3.84 7.81,-6.08 12.78,-6.08 h 142.49 c 7.9,0 14.67,5.59 16.15,13.38 5.82,30.54 15.41,80.92 6.69,117.81 -0.3,1.26 -0.73,2.43 -1.29,3.59 -15.98,31.93 -28.14,189.01 -28.14,255.44 l 0.01,13.48 c 0.24,54.39 0.38,87.18 -39.72,117.23 -31.23,23.43 -87.17,132.14 -105.79,187.99 -10.71,32.05 -18.5,112.9 -24.74,177.84 -3.97,41.13 -7.37,76.67 -10.93,94.48 -0.1,0.54 -0.18,1.1 -0.28,1.59 51.25,-13.99 69.51,-46.43 97.75,-107.97 21.97,-47.83 32.34,-104.72 58.05,-148.42 -0.46,-85.17 60.49,-119.12 85.45,-125.92 26.19,-7.14 41.35,-13.3 62.38,-24.54 21.02,-11.19 1.65,25.79 -15.88,39.13 z M 2208.89,3501.43 c 5.07,11.88 16.26,34.59 16.45,45.65 0.2,13.38 14.91,4.67 21.89,1.83 9.15,-3.65 17.96,-21.87 16.47,-38.35 -1.83,-20.12 -10.97,-51.17 -23.77,-45.68 -12.79,5.5 -36.52,23.79 -31.04,36.55 z m -833.33,731.52 c 1.54,1.37 3.25,2.87 5.38,4.66 24.27,20.23 89.28,32.57 148.16,3.11 49.66,-24.81 83.92,-85.74 80.12,-142.1 -5.32,-17.67 -23.77,-19.58 -29.38,-19.66 -13.53,-0.3 -25.64,5.66 -28.97,13.95 -0.56,26.35 -10.91,76.67 -47.23,109.82 -42.98,39.25 -110.88,32.63 -128.08,30.22 z m 822.35,-658.86 c 12.79,-5.52 3.67,-41.6 -9.13,-52.57 -9.98,-8.55 -18.26,-1.84 -23.76,5.49 -5.47,7.32 -56.62,51.13 -76.69,74.91 -20.12,23.74 -18.27,60.29 -18.27,74.9 0,20.09 34.7,3.65 47.47,-1.86 12.79,-5.46 29.7,-4.57 29.7,-17.32 0,-12.78 1.36,-26.49 12.32,-30.16 10.97,-3.63 8.68,-21.93 12.35,-32.88 3.63,-10.95 13.21,-15.06 26.01,-20.51 z m 337.05,-182.24 c 5.49,-6.86 1.38,-30.19 -5.47,-38.4 -4.72,-5.63 -23.55,-3.04 -43.83,-2.71 -26.03,0.36 -52.08,-1.38 -53.43,6.85 -1.79,10.54 17.42,36.47 27.4,42.45 6.85,4.12 27.2,-1.79 43.82,-2.74 23.3,-1.35 26.04,1.4 31.51,-5.45 z m 558.09,-31.08 c -9.13,0 -36.5,0 -49.31,0 -12.81,0 -29.23,0 -29.23,9.15 0,9.11 14.61,36.5 23.73,43.82 9.15,7.34 20.12,0 27.42,-3.65 7.31,-3.67 15.99,-4.56 29.24,-7.34 9.13,-1.86 8.65,-11.39 8.65,-20.51 0,-9.12 -1.35,-21.47 -10.5,-21.47 z m 118.76,210.07 c -14.59,-16.42 -47.49,-52.99 -52.99,-69.41 -5.47,-16.43 -1.83,-36.55 -9.14,-43.84 -7.3,-7.28 -29.23,-20.1 -34.67,-27.39 -5.49,-7.3 -37.39,3.77 -45.71,12.77 -5.46,5.96 10.17,25.83 19.2,43.42 9.14,17.8 15.53,42.45 17.33,60.69 1.87,18.31 14.62,69.45 18.29,91.37 3.64,21.91 -7.28,52.96 -17.36,65.78 -10.06,12.77 -26.09,44.65 -34.48,56.15 -6.67,9.16 -12.18,35.17 -1.3,33.35 10.83,-1.81 47.65,-10.97 64.11,-16.45 16.42,-5.49 24.16,-16.17 32.87,-29.23 10.95,-16.42 14.62,-45.65 16.45,-60.29 1.81,-14.59 -5.5,-29.23 3.64,-31.05 9.17,-1.82 16.42,29.21 16.42,42.02 0,12.8 0,28.76 -3.66,46.57 -3.29,16.13 25.58,-0.89 38.39,-11.84 12.81,-10.99 7.31,-25.6 5.48,-38.4 -1.81,-12.74 9.13,-42 11,-62.11 1.8,-20.07 -29.29,-45.65 -43.87,-62.11 z m 427.47,-205.04 c -2.78,-9.28 -8.2,-13.71 -19.2,-13.71 -10.98,0 -35.6,0 -50.64,0 -15.07,0 -31.55,0 -30.17,16.45 1.21,14.83 11.13,26.71 16.02,33.2 l -0.04,-0.77 c 1.84,2.92 4.08,4.85 6.56,6.34 0.73,0.25 1.35,0.59 2.17,0.74 0.22,0.26 0.42,0.5 0.61,0.76 9.77,3.96 23.03,0.78 36.34,-0.55 14.33,-1.45 34.03,-8.49 42.01,-17.61 1.13,-6.31 -0.84,-15.49 -3.66,-24.85 z m -166.86,658.75 c 18.18,-54.48 76.48,-173.28 117.24,-203.85 25.83,-19.37 26.84,-34.82 26.64,-90.83 l -0.02,-13.6 c 0,-58.2 10.45,-218.37 29.78,-265.51 5.76,-32.28 -24.71,-22.02 -37.84,-18.78 -12.13,3.07 -30.43,4.95 -38.42,14.93 -1.5,24.77 -7,50.02 -14.25,73.5 -9.08,66.55 -37.97,107.35 -84.34,174.65 -43.39,63.02 -100.48,74.93 -140.65,89.54 -40.2,14.58 -78.45,48.63 -96.82,68.98 -52.53,57.98 -77.21,139.27 -86.34,141.1 -9.12,1.82 -24.65,-21.94 -41.57,-38.36 -14.91,-14.53 -69.39,-52.97 -118.72,-76.74 -48.63,-23.4 -104.12,-42.01 -151.65,-52.95 -44.49,-10.3 -107.79,-16.47 -126.03,-14.64 -18.28,1.84 -53,7.34 -53,16.42 0,9.16 -10.93,31.07 -21.93,40.21 -10.91,9.17 -29.2,23.76 -23.72,34.73 5.46,10.93 -3.67,25.56 -14.63,38.33 -10.94,12.81 14.63,21.94 25.58,34.73 10.99,12.79 18.28,29.23 -23.76,60.28 -23.23,17.17 -7.29,-12.78 -7.29,-23.73 0,-15.73 -10.18,-15.12 -20.11,-20.11 -10.95,-5.48 -18.25,-12.77 -5.44,-34.71 7.15,-12.32 10.92,-21.93 1.81,-32.88 -9.12,-10.98 7.31,-32.88 20.08,-49.33 12.8,-16.45 -2.73,-38.36 -12.77,-51.15 -7.25,-9.21 5.23,-30.15 18.25,-54.79 16.45,-31.06 -18.85,-55.1 -16.45,-52.99 -10.72,-9.41 -10.47,-26.05 -1.8,-34.7 10.96,-10.95 10.55,-30 7.3,-36.54 -5.5,-10.98 -16.42,-27.4 -12.81,-40.21 4.75,-16.59 5.51,-20.07 3.67,-34.71 -1.84,-14.6 -14.64,-22.7 -20.09,-34.68 -9.14,-20.11 7.3,-45.72 9.13,-78.57 0.53,-9.37 -4.31,-18.19 -11.3,-24.87 -15.19,-9.55 -29.25,-11.96 -41.21,-10.77 -10.55,1.07 -25.03,3 -29.32,9.43 3.68,15.85 7.94,38.7 5.87,53.23 -4.13,28.75 -14.54,53.59 -30.93,73.78 l -5.8,7.1 c -1.49,1.81 -3.52,4.3 -5.28,6.47 -7.66,15.26 -21.11,36.4 -37.3,55.52 -20.1,23.78 -25.59,77.2 -32.89,97.3 -7.31,20.07 -29.83,40.16 -42.47,50.68 -43.84,36.53 -35.23,63.47 -45.22,89.52 -8.2,21.45 -21.7,39.08 -41.09,43.38 -24.68,5.47 -45.21,8.23 -49.34,26.06 -4.95,21.38 -7.18,27.48 -22.82,34.67 -23.76,10.99 -25.56,49.36 -32.9,47.5 -7.28,-1.81 -10.48,-37.44 18.75,-63 13.75,-12.03 9.93,-50.86 50.69,-67.16 13.69,-5.46 30.96,-15.69 32.89,-24.66 4.11,-19.17 4.73,-42.56 16.43,-63.03 10.95,-19.17 31.51,-36.99 12.34,-42.46 -10.27,-2.96 -23.32,8.23 -34.27,11.84 -10.94,3.67 -23.96,16.63 -32.87,14.64 -16.47,-3.65 -7.3,-23.72 -18.3,-29.23 -9.49,-4.75 -21.44,1.84 -36.52,12.36 -15.29,10.62 -29.91,18.94 -44.3,22.38 -2.02,1.89 -4.13,3.65 -6.38,5.01 -5.26,3.14 -4.11,19.19 -20.58,26.05 -14.13,5.84 -17.45,10.13 -28.77,16.41 -12.32,6.86 -27.36,4.14 -15.05,-13.7 6.85,-9.9 3.02,-20.02 -4.16,-20.87 -11.76,6.73 -31.73,13.3 -45.85,10.6 -10.78,-2.07 -25.62,-12.31 -42.49,-12.31 -23.96,0 -33.55,19.87 -39.05,28.95 -5.46,9.16 -14.3,18.73 -18.26,32.9 -4.56,16.48 -7.31,40.21 -18.26,32.9 -8.19,-5.47 0,-16.42 -10.97,-32.9 -7.38,-11.05 -31.07,5.49 -34.7,18.27 -3.65,12.8 -31.07,27.4 -40.2,38.37 -9.12,10.96 -23.76,31.05 -31.05,25.6 -7.3,-5.51 20.1,-58.5 34.7,-74.93 14.63,-16.43 5.48,-36.54 5.48,-52.96 0,-14.74 10.62,-43.12 23.75,-25.56 10.95,14.59 25.58,14.59 42.02,9.08 15.99,-5.32 43.85,-20.07 47.49,-31.06 3.27,-9.73 22.41,-20.94 36.91,-33.59 0.4,-1.07 0.48,-2.27 1.13,-3.24 5.92,-8.82 5.44,-18.67 3.98,-21.47 -7.04,-3.24 -11.17,-10.82 -9.26,-18.61 0.89,-3.62 0.99,-9 0.65,-15.04 -4.62,-5.31 -13.52,12.78 -24.28,17.07 -9.13,3.67 -9.17,0.06 1.84,-21.89 7.77,-15.51 11.44,-36.24 4.61,-55.57 -4.55,-7.68 -9.89,-14.21 -16.08,-18.34 -2.33,4.4 -4.82,11.89 -6.22,16.06 -1.68,5.02 -3.29,9.85 -5.19,13.67 -4.75,9.48 -12.61,16.77 -20.19,23.82 -5.08,4.75 -10.37,9.65 -14.84,15.27 -0.32,0.41 -0.81,0.67 -1.14,1.08 -2.5,4.09 -6.22,8.98 -12.2,14.96 -20.08,20.1 -32.88,42 -32.88,52.97 0,10.96 -12.16,22.48 -20.1,3.66 -12.18,-28.86 -23.49,-48.71 -41.52,-65.15 -9.27,-5.68 -18.81,-11.51 -27.38,-14.11 -0.4,-0.12 -31.53,-8.47 -57.15,13.99 -7.28,7.82 -16.3,20.88 -14.16,36.04 1.37,9.59 6.19,15.08 15.09,21.25 8.87,6.14 12.6,21.32 30.84,24.62 7.51,1.4 16.2,-3.13 19.86,4.14 4.09,8.21 -15.09,21.91 -28.6,20.86 -26.12,-2.09 -29.32,-19.1 -35.82,-25 -6.19,-5.57 -30.22,-1.56 -39.64,-30.71 -19.2,8.19 -39.55,19.02 -61.49,36.87 -23.61,23.28 -24.5,48.27 -22.17,57.6 2.72,10.92 5.46,16.41 -27.4,15.04 -28.38,-1.18 -45.39,5.23 -60.1,18.32 -3.05,2.92 -6.19,5.64 -8.77,9.08 -8.6,11.52 -14.63,26.64 -19.47,38.76 -4.45,11.13 -7.37,18.49 -12.19,23.32 -1.62,1.61 -3.97,3.59 -7.54,6.6 -11.56,9.72 -38.63,32.56 -46.1,51.19 -20.02,50.05 -18.51,89.05 5.05,130.45 5.98,10.5 13.63,19.7 21.79,28.31 37.95,32.83 75.33,36.35 86.23,22.34 10.34,-13.31 5.48,-34.69 23.74,-40.17 13.45,-4.04 27.84,-13.08 35.98,-25.55 0.18,-2.29 0.33,-4.58 0.33,-6.56 v -3.41 l 1.01,-3.19 c 7.23,-22.86 32.48,-38.41 61.43,-37.78 29.73,0.63 53.55,18.17 60.69,44.74 l 0.53,1.97 0.17,2.01 c 5.46,70.44 -35.8,144.22 -98.15,175.36 -12.85,6.43 -26.06,10.78 -39.28,14.19 4.36,10.54 8.7,21.24 12.87,31.62 6.33,15.85 12.35,30.9 17.23,41.6 9.9,21.79 30.41,45.65 41.07,57.28 15.04,-3.72 34.95,-3.72 47.21,11.6 6.39,7.95 12.43,20.11 19.43,34.2 7.75,15.67 16.59,33.4 25.43,43.74 15.35,17.91 39.2,28.73 39.45,28.85 4.95,2.21 8.52,6.75 9.45,12.08 5.13,28.1 33.16,81.05 67.1,107.3 11.9,-4.16 32.02,-6.33 59.74,7.52 10.32,5.17 20.84,11.78 31.96,18.75 30.46,19.11 64.97,40.72 117.01,49.06 68.55,10.96 147.82,3.75 187.85,-4.14 6.33,-11.01 18.81,-23.47 39.63,-26.06 7.86,-1 22.37,-1.37 40.7,-1.83 35.52,-0.92 86.59,-2.26 117.54,-8.91 -0.07,-5.63 0.9,-11.83 4.15,-17.47 4.3,-7.45 11.7,-12.4 20.82,-13.92 4.78,-0.79 12.5,-1.32 23.09,-2.03 27.07,-1.82 90.44,-6.11 107.36,-21.16 l 27.11,-24.1 c 3.01,-2.7 6.92,-4.19 10.91,-4.19 35.23,0 112.01,-9.08 172.68,-29.26 24.68,-8.24 45.82,-16.83 66.27,-25.14 31.64,-12.85 58.98,-23.96 89.62,-29.72 33.58,-6.28 93.77,-15.48 151.95,-24.41 l 72.15,-11.14 c 51.01,-8.05 206.31,-32.58 249.2,-57.37 44.56,-25.78 51.81,-67.46 58.86,-107.76 1.07,-6.13 2.16,-12.45 3.36,-18.47 3.24,-16.19 6.75,-52.64 10.46,-91.22 6.75,-70.08 14.39,-149.46 26.25,-185.1"
       style="fill:#231f20;fill-opacity:1;fill-rule:nonzero;stroke:none"
       transform="matrix(0.13333333,0,0,-0.13333333,0,672)" />
    <path
       id="path4"
       d="m 1612.05,3975.05 c -14.09,-6.08 -45.29,-31.5 -36.25,-52.38 12.09,-10.06 30.21,-22.14 48.33,-4.01 18.12,18.12 4.01,36.24 4.01,36.24 10.08,6.02 18.65,16.79 18.12,24.17 -0.5,7.37 -20.12,2.02 -34.21,-4.02"
       style="fill:#231f20;fill-opacity:1;fill-rule:nonzero;stroke:none"
       transform="matrix(0.13333333,0,0,-0.13333333,0,672)" />
    <path
       id="path5"
       d="m 1697.15,3723.41 c -10.26,-3.61 -13.14,-19.22 -12.29,-24.15 2.03,-12.34 8.03,-20.76 14.38,-16.44 6.32,4.3 -1.48,8.64 2.04,19.83 2.84,8.96 6.9,3.6 9.96,8.68 3.05,5.02 -3.87,15.68 -14.09,12.08"
       style="fill:#231f20;fill-opacity:1;fill-rule:nonzero;stroke:none"
       transform="matrix(0.13333333,0,0,-0.13333333,0,672)" />
    <path
       id="path6"
       d="m 1606.05,3860.42 c -15.1,5.45 -27.43,16.41 -34.25,6.85 -7.14,-9.99 13.67,-17.82 30.13,-20.54 16.42,-2.8 19.16,8.19 4.12,13.69"
       style="fill:#231f20;fill-opacity:1;fill-rule:nonzero;stroke:none"
       transform="matrix(0.13333333,0,0,-0.13333333,0,672)" />
    <path
       id="path7"
       d="m 3392.1,4271.82 c -1.46,24.97 -9.04,50.4 -13.11,70.87 -4.15,20.55 -21.98,50.68 -63.05,63 -39.87,11.99 -65.76,2.76 -46.61,-5.47 23.26,-9.93 41.02,-11.65 65.76,-39.74 20.58,-23.27 30.81,-57.93 39.75,-82.19 9.6,-26.01 18.25,-23.33 17.26,-6.47"
       style="fill:#231f20;fill-opacity:1;fill-rule:nonzero;stroke:none"
       transform="matrix(0.13333333,0,0,-0.13333333,0,672)" />
    <path
       id="path8"
       d="m 1504.66,3987.37 c -15.11,-1.37 -16.38,9.33 -15.53,21.01 0.89,12.78 3.62,24.2 -1.84,25.58 -5.49,1.38 -13.69,-11.88 -15.53,-24.65 -2.18,-15.18 -3.66,-39.29 11.87,-41.11 9.63,-1.16 10.32,-9.47 10.97,-23.76 0.89,-21 5.91,-34.24 12.76,-41.09 4.59,-4.6 10.06,-6.4 7.3,7.3 -2.79,14.01 -0.62,23.72 0.93,40.19 1.83,19.18 4.11,37.91 -10.93,36.53"
       style="fill:#231f20;fill-opacity:1;fill-rule:nonzero;stroke:none"
       transform="matrix(0.13333333,0,0,-0.13333333,0,672)" />
    <path
       id="path9"
       d="m 2828.02,3953.5 c -32.99,-9.43 -82.11,-10.99 -79.72,-22.31 3.61,-16.91 46.63,-18.56 106.73,0.87 48.18,15.58 92.04,50.31 87.66,60.02 -5.11,11.13 -17.79,-10.89 -114.67,-38.58"
       style="fill:#231f20;fill-opacity:1;fill-rule:nonzero;stroke:none"
       transform="matrix(0.13333333,0,0,-0.13333333,0,672)" />
    <path
       id="path10"
       d="m 3021.03,4042.96 c -12.38,-7.06 -30.25,-15.89 -23.63,-22.15 6.65,-6.23 21.44,-1.06 33,7.31 12,8.8 20.99,23.38 17.05,29.34 -2.82,4.33 -15.61,-8.34 -26.42,-14.5"
       style="fill:#231f20;fill-opacity:1;fill-rule:nonzero;stroke:none"
       transform="matrix(0.13333333,0,0,-0.13333333,0,672)" />
    <path
       id="path11"
       d="m 1705.14,4197.91 c -10.38,7.87 -47.28,-17.8 -43.87,-57.33 1.76,-20.47 31.53,-52.28 39.75,-22.13 -32.9,39.73 10.93,74.31 4.12,79.46"
       style="fill:#231f20;fill-opacity:1;fill-rule:nonzero;stroke:none"
       transform="matrix(0.13333333,0,0,-0.13333333,0,672)" />
    <path
       id="path12"
       d="m 1766.1,4244.5 c 1.79,10.82 7.57,32.31 -15.08,36.29 -34.5,6.07 -78.77,-9.58 -100.7,-41.09 -7.83,-11.26 -7.41,-38.73 8.23,-22.61 22.6,23.27 60.29,34.26 79.22,30.41 -3.95,-13.87 -4.5,-36.78 -0.03,-57 4.42,-20.03 16.27,-67.93 -20.28,-86.22 -7.38,-3.67 10.96,-29.23 36.55,-16.44 19.76,9.89 37.44,43.62 19.62,92.27 -8.72,23.8 -10.95,43.83 -7.53,64.39"
       style="fill:#231f20;fill-opacity:1;fill-rule:nonzero;stroke:none"
       transform="matrix(0.13333333,0,0,-0.13333333,0,672)" />
    <path
       id="path13"
       d="m 3396.32,4075.05 c -17.33,0 -3.67,-62.09 7.34,-80.37 10.92,-18.27 41.99,-43.84 49.27,-36.54 7.3,7.34 -14.62,23.76 -31.03,58.45 -12.65,26.7 -14.63,58.46 -25.58,58.46"
       style="fill:#231f20;fill-opacity:1;fill-rule:nonzero;stroke:none"
       transform="matrix(0.13333333,0,0,-0.13333333,0,672)" />
    <path
       id="path14"
       d="m 3140.57,4429.47 c -16.45,3.66 -45.67,10.95 -47.52,3.66 -3.1,-12.54 34.71,-21.93 52.96,-23.77 18.31,-1.81 38.4,-7.27 42.04,5.49 2.52,8.8 -31.06,10.95 -47.48,14.62"
       style="fill:#231f20;fill-opacity:1;fill-rule:nonzero;stroke:none"
       transform="matrix(0.13333333,0,0,-0.13333333,0,672)" />
    <path
       id="path15"
       d="m 1687.34,4063.19 c -14.18,-17.13 -36.09,-31.5 -75.17,-36.33 -18.2,-2.25 -21.55,-6.6 -5.23,-9.36 29.92,-5.03 58.17,2.67 73.06,7.33 10.99,3.42 17.45,5.38 24.69,-1.84 7.3,-7.32 10.05,-23.74 16.42,-23.74 6.41,0 5.52,23.84 3.66,35.62 -2.74,17.35 -21.46,47.64 -37.43,28.32"
       style="fill:#231f20;fill-opacity:1;fill-rule:nonzero;stroke:none"
       transform="matrix(0.13333333,0,0,-0.13333333,0,672)" />
    <path
       id="path16"
       d="m 2513.96,3825.69 c 12.79,0 37.05,22.7 29.22,27.41 -4.57,2.71 -20.99,-3.65 -35.61,-5.5 -10.13,-1.23 -1.84,-21.91 6.39,-21.91"
       style="fill:#231f20;fill-opacity:1;fill-rule:nonzero;stroke:none"
       transform="matrix(0.13333333,0,0,-0.13333333,0,672)" />
    <path
       id="path17"
       d="m 2503.9,3771.79 c -17.33,1.93 -9.1,-29.39 7.33,-28.3 13.71,0.92 41.69,17.84 36.56,26.5 -2.77,4.58 -19.22,-0.94 -43.89,1.8"
       style="fill:#231f20;fill-opacity:1;fill-rule:nonzero;stroke:none"
       transform="matrix(0.13333333,0,0,-0.13333333,0,672)" />
    <path
       id="path18"
       d="m 1958.04,3853.2 c -7.34,4.6 -19.22,17.78 -23.62,15.12 -4.98,-3.1 -7.35,-18.93 3.8,-27.24 11.14,-8.34 43.74,-13.34 47.22,-6.67 3.5,6.69 -20.05,14.25 -27.4,18.79"
       style="fill:#231f20;fill-opacity:1;fill-rule:nonzero;stroke:none"
       transform="matrix(0.13333333,0,0,-0.13333333,0,672)" />
    <path
       id="path19"
       d="m 1922.07,3992.85 c 0.92,7.29 -13.72,5.49 -22.85,8.21 -9.13,2.73 -21.89,8.25 -24.64,4.58 -2.98,-3.91 10.04,-18.27 20.09,-19.2 10.06,-0.89 26.48,-0.89 27.4,6.41"
       style="fill:#231f20;fill-opacity:1;fill-rule:nonzero;stroke:none"
       transform="matrix(0.13333333,0,0,-0.13333333,0,672)" />
    <path
       id="path20"
       d="m 2112.95,3951.74 c -5.47,3.65 -23.27,9.34 -28.29,1.85 -4.59,-6.88 -10.06,-4.12 -20.12,0.9 -4.74,2.4 -18.24,9.13 -20.97,5.5 -5.21,-6.96 15.96,-25.57 43.82,-31.97 24.63,-5.67 41.14,0.89 41.14,8.19 0,7.34 -10.06,11.9 -15.58,15.53"
       style="fill:#231f20;fill-opacity:1;fill-rule:nonzero;stroke:none"
       transform="matrix(0.13333333,0,0,-0.13333333,0,672)" />
    <path
       id="path21"
       d="m 2127.59,3842.16 c -0.94,-6.42 10.04,-20.12 22.84,-26.5 9.31,-4.64 8.26,-12.71 14.59,-15.53 16.47,-7.32 29.26,-1.84 42.03,4.56 12.78,6.41 -4.26,14.94 -12.77,16.43 -15.56,2.75 -34.73,9.13 -52.08,19.21 -10.32,5.96 -13.67,8.19 -14.61,1.83"
       style="fill:#231f20;fill-opacity:1;fill-rule:nonzero;stroke:none"
       transform="matrix(0.13333333,0,0,-0.13333333,0,672)" />
    <path
       id="path22"
       d="m 2085.56,3874.12 c -4.56,3.67 -13.7,3.67 -13.7,-3.67 0,-6.63 17.38,-16.43 23.77,-12.81 6.37,3.67 -5.5,12.81 -10.07,16.48"
       style="fill:#231f20;fill-opacity:1;fill-rule:nonzero;stroke:none"
       transform="matrix(0.13333333,0,0,-0.13333333,0,672)" />
    <path
       id="path23"
       d="m 2120.29,4057.72 c -2.39,-7.18 8.24,-22.85 13.7,-22.85 5.46,0 0,14.62 -0.93,24.67 -0.89,10.05 -9.13,9.12 -12.77,-1.82"
       style="fill:#231f20;fill-opacity:1;fill-rule:nonzero;stroke:none"
       transform="matrix(0.13333333,0,0,-0.13333333,0,672)" />
    <path
       id="path24"
       d="m 1935.79,4050.39 c 17.34,-9.11 34.69,-13.7 40.16,-10.98 5.49,2.78 -17.34,16.48 -21.93,23.78 -4.53,7.3 4.18,5.61 10.06,10.05 10.97,8.21 -4.55,20.1 -17.36,27.41 -8.98,5.11 -20.99,15.53 -23.73,11.89 -2.73,-3.68 7.36,-13.83 8.2,-18.34 2.28,-11.83 -15.97,1.42 -21.9,-4.54 -10.07,-10.03 9.14,-30.12 26.5,-39.27"
       style="fill:#231f20;fill-opacity:1;fill-rule:nonzero;stroke:none"
       transform="matrix(0.13333333,0,0,-0.13333333,0,672)" />
    <path
       id="path25"
       d="m 2014.31,4021.16 c -7.3,4.57 -17.36,7.32 -20.06,4.57 -3.26,-3.24 6.37,-16.42 18.23,-20.09 11.89,-3.67 21.93,-2.74 21.93,1.82 0,4.57 -12.76,9.13 -20.1,13.7"
       style="fill:#231f20;fill-opacity:1;fill-rule:nonzero;stroke:none"
       transform="matrix(0.13333333,0,0,-0.13333333,0,672)" />
    <path
       id="path26"
       d="m 2051.33,4144.03 c -27.41,5.45 -36.57,14.6 -41.11,19.15 -6.85,6.86 -3.16,34.47 -14.16,37.04 -11.89,2.72 -33.81,4.1 -40.2,25.57 -4.99,16.78 0,31.94 -2.73,34.68 -4.33,4.32 -11.56,-7.46 -14.16,-17.79 -5.01,-20.12 1.39,-35.61 11.41,-46.13 19.26,-20.12 38.46,-15.75 37.46,-24.66 -0.93,-8.24 1.82,-18.27 12.78,-29.23 5.95,-5.98 32.89,-13.71 48.4,-8.24 10.54,3.73 7.95,8.47 2.31,9.61"
       style="fill:#231f20;fill-opacity:1;fill-rule:nonzero;stroke:none"
       transform="matrix(0.13333333,0,0,-0.13333333,0,672)" />
    <path
       id="path27"
       d="m 1935.79,4310.71 c -1.62,-6.37 -0.94,-21.46 26.46,-28.31 10.11,-2.51 4.38,7.95 -1.83,12.78 -8.23,6.45 -10.04,19.2 -6.4,29.23 3.67,10.05 -9.54,17.77 -10.94,28.31 -1.83,13.73 12.48,26.22 6.41,28.33 -11.89,4.13 -38.4,-25.59 -26.5,-49.33 6.95,-13.88 16.44,-6.38 12.8,-21.01"
       style="fill:#231f20;fill-opacity:1;fill-rule:nonzero;stroke:none"
       transform="matrix(0.13333333,0,0,-0.13333333,0,672)" />
    <path
       id="path28"
       d="m 2326.69,4120.72 c -1.35,12.34 -9.57,-1.34 -16.42,-8.18 -6.85,-6.86 -19.17,-10.08 -31.52,-11 -9.67,-0.71 -23.42,-2.61 -16.44,-9.57 9.6,-9.6 23.75,-17.71 39.75,-10.99 26.01,10.99 26.01,27.41 24.63,39.74"
       style="fill:#231f20;fill-opacity:1;fill-rule:nonzero;stroke:none"
       transform="matrix(0.13333333,0,0,-0.13333333,0,672)" />
    <path
       id="path29"
       d="m 2344.54,4046.73 c -6.87,0 -17.85,4.13 -21.94,-2.74 -3.6,-5.98 8.22,-16.44 20.55,-16.44 12.32,0 21.94,16.44 17.82,21.94 -4.12,5.47 -9.58,-2.76 -16.43,-2.76"
       style="fill:#231f20;fill-opacity:1;fill-rule:nonzero;stroke:none"
       transform="matrix(0.13333333,0,0,-0.13333333,0,672)" />
    <path
       id="path30"
       d="m 1827.98,4050.86 c -8.6,-1.72 -4.12,-19.17 5.48,-21.93 9.6,-2.76 26.02,-4.1 30.14,0 4.11,4.09 -28.77,23.29 -35.62,21.93"
       style="fill:#231f20;fill-opacity:1;fill-rule:nonzero;stroke:none"
       transform="matrix(0.13333333,0,0,-0.13333333,0,672)" />
    <path
       id="path31"
       d="m 1827.98,4139.91 c 0,-8.22 13.7,-15.07 20.55,-13.68 6.88,1.34 28.8,28.75 23.3,32.88 -5.5,4.07 -43.85,-15.08 -43.85,-19.2"
       style="fill:#231f20;fill-opacity:1;fill-rule:nonzero;stroke:none"
       transform="matrix(0.13333333,0,0,-0.13333333,0,672)" />
    <path
       id="path32"
       d="m 1766.33,4467.36 c -15.07,-1.36 -56.17,-21.93 -65.78,-34.23 -9.56,-12.33 -1.36,-23.3 -12.32,-27.44 -10.95,-4.09 -35.64,-31.5 -42.47,-49.28 -6.85,-17.84 0,-27.41 5.49,-17.84 7.35,12.88 35.6,49.33 50.68,50.7 15.08,1.38 21.93,17.82 27.4,28.78 5.48,10.96 38.39,32.89 50.7,38.36 12.32,5.48 1.36,12.32 -13.7,10.95"
       style="fill:#231f20;fill-opacity:1;fill-rule:nonzero;stroke:none"
       transform="matrix(0.13333333,0,0,-0.13333333,0,672)" />
    <path
       id="path33"
       d="m 1855.41,4518.08 c -4.12,5.47 -51.74,-10.26 -56.19,-19.2 -4.12,-8.21 13.72,-20.55 17.82,-15.06 4.08,5.47 42.44,28.79 38.37,34.26"
       style="fill:#231f20;fill-opacity:1;fill-rule:nonzero;stroke:none"
       transform="matrix(0.13333333,0,0,-0.13333333,0,672)" />
    <path
       id="path34"
       d="m 2032.13,4644.13 c 20.55,8.22 58.93,12.32 54.79,20.55 -4.09,8.21 -54.79,6.85 -79.45,-2.76 -24.66,-9.57 -21.37,-23.51 -19.18,-30.12 2.75,-8.23 23.3,4.09 43.84,12.33"
       style="fill:#231f20;fill-opacity:1;fill-rule:nonzero;stroke:none"
       transform="matrix(0.13333333,0,0,-0.13333333,0,672)" />
    <path
       id="path35"
       d="m 2106.15,4655.07 c -16.47,-4.09 -32.93,-12.33 -23.32,-24.65 8.65,-11.15 20.91,4.3 28.78,8.21 16.44,8.21 31.51,8.21 28.77,13.72 -2.75,5.48 -17.81,6.81 -34.23,2.72"
       style="fill:#231f20;fill-opacity:1;fill-rule:nonzero;stroke:none"
       transform="matrix(0.13333333,0,0,-0.13333333,0,672)" />
    <path
       id="path36"
       d="m 2350,4624.95 c -16.43,-5.5 -13.7,-14.96 -13.7,-21.91 0,-13.73 21.71,-7.2 41.11,-4.14 34.94,5.49 58.21,3.42 57.55,10.28 -0.95,9.64 -68.52,21.24 -84.96,15.77"
       style="fill:#231f20;fill-opacity:1;fill-rule:nonzero;stroke:none"
       transform="matrix(0.13333333,0,0,-0.13333333,0,672)" />
    <path
       id="path37"
       d="m 2217.11,4648.24 c -0.69,3.4 -10.95,7.31 -17.16,7.52 -21.89,0.69 -28.05,-2.74 -25.33,-13.02 3.2,-11.98 15.34,-5.67 25.33,-2.73 11.68,3.42 18.25,2.69 17.16,8.23"
       style="fill:#231f20;fill-opacity:1;fill-rule:nonzero;stroke:none"
       transform="matrix(0.13333333,0,0,-0.13333333,0,672)" />
    <path
       id="path38"
       d="m 2278.75,4400.22 c -6.84,2.76 -42.72,-5.77 -43.82,-13.68 -1.4,-9.59 5.46,-17.82 16.43,-16.44 10.95,1.38 35.54,26.88 27.39,30.12"
       style="fill:#231f20;fill-opacity:1;fill-rule:nonzero;stroke:none"
       transform="matrix(0.13333333,0,0,-0.13333333,0,672)" />
    <path
       id="path39"
       d="m 2213.01,4231.68 c -19.22,1.4 -16.45,-4.09 -17.84,-10.92 -1.38,-6.83 2.74,-10.97 27.41,-6.83 8.55,1.4 19.2,2.94 19.2,10.91 0,5.51 -19.12,6.18 -28.77,6.84"
       style="fill:#231f20;fill-opacity:1;fill-rule:nonzero;stroke:none"
       transform="matrix(0.13333333,0,0,-0.13333333,0,672)" />
    <path
       id="path40"
       d="m 2486.56,4586.57 c -8.24,-0.91 -15.53,0 -18.27,-4.56 -2.86,-4.78 8.21,-16.46 17.37,-14.62 9.11,1.81 20.07,17.34 18.24,21.01 -1.83,3.65 -9.13,-0.92 -17.34,-1.83"
       style="fill:#231f20;fill-opacity:1;fill-rule:nonzero;stroke:none"
       transform="matrix(0.13333333,0,0,-0.13333333,0,672)" />
    <path
       id="path41"
       d="m 2592.5,4514.43 c 7.39,7.34 21.94,23.71 18.28,40.18 -2.95,13.25 -15.1,27.42 -16.45,7.29 -0.92,-13.7 -11.86,-20.99 -48.41,-31.96 -22.13,-6.64 2.33,-20.98 11.9,-26.5 17.33,-10.06 42.92,-26.47 44.73,-48.4 0.93,-11.07 -6.02,-15.58 -23.75,-27.39 -16.42,-10.97 -3.49,-31.22 -10.95,-40.2 -9.17,-10.95 -30.55,-14.52 -47.49,-18.26 -16.46,-3.67 -22.53,-10.26 -3.65,-25.61 29.21,-23.71 -16.45,-31.06 3.65,-38.35 20.09,-7.28 42.93,-16.42 45.66,-40.18 1.67,-14.35 15.53,0 11.89,28.3 -3.77,29.23 -31.26,50.82 -20.09,55.75 14.59,6.36 36.51,9.12 50.21,21.91 16.5,15.38 -27.82,35.39 -9.15,45.67 36.56,20.09 45.43,43.25 31.98,63.05 -13.7,20.06 -42.9,30.12 -38.36,34.7"
       style="fill:#231f20;fill-opacity:1;fill-rule:nonzero;stroke:none"
       transform="matrix(0.13333333,0,0,-0.13333333,0,672)" />
    <path
       id="path42"
       d="m 2557.82,4227.59 c -6.75,-10.81 -18.29,-27.37 -31.07,-33.77 -12.79,-6.41 -4.8,-10.05 3.67,-8.25 12.76,2.77 36.52,21.02 39.26,32.89 2.73,11.89 -7.3,16.45 -11.86,9.13"
       style="fill:#231f20;fill-opacity:1;fill-rule:nonzero;stroke:none"
       transform="matrix(0.13333333,0,0,-0.13333333,0,672)" />
    <path
       id="path43"
       d="m 2498.43,4160 c -4.42,-2.63 -1.83,-6.38 3.64,-12.79 5.5,-6.41 9.16,-7.3 12.82,-6.41 3.64,0.92 -1.82,6.41 -4.59,11 -2.73,4.54 -7.29,10.94 -11.87,8.2"
       style="fill:#231f20;fill-opacity:1;fill-rule:nonzero;stroke:none"
       transform="matrix(0.13333333,0,0,-0.13333333,0,672)" />
    <path
       id="path44"
       d="m 1846.04,4617.48 c -8.05,-4.69 -8.54,-20.79 -3.23,-22.43 5.07,-1.6 9.93,3.95 16.67,8.74 6.76,4.8 15.24,6.24 14.19,10.17 -1.08,3.97 -19.6,8.27 -27.63,3.52"
       style="fill:#231f20;fill-opacity:1;fill-rule:nonzero;stroke:none"
       transform="matrix(0.13333333,0,0,-0.13333333,0,672)" />
    <path
       id="path45"
       d="m 2598.28,4119.79 c -8.48,-1.06 -1.52,-18.37 5.36,-18.37 10.71,0 31.06,19.01 24.48,22.97 -3.84,2.27 -17.6,-3.09 -29.84,-4.6"
       style="fill:#231f20;fill-opacity:1;fill-rule:nonzero;stroke:none"
       transform="matrix(0.13333333,0,0,-0.13333333,0,672)" />
    <path
       id="path46"
       d="m 2010.22,3906.98 c -28.78,8.23 -57.55,21.93 -76.75,35.64 -18.93,13.54 -19.99,-7.61 -8.2,-23.31 20.56,-27.42 42.48,-30.13 50.68,-19.14 12.34,-6.89 15.09,-2.78 26.04,-5.5 16.45,-4.13 28.15,6.62 8.23,12.31"
       style="fill:#231f20;fill-opacity:1;fill-rule:nonzero;stroke:none"
       transform="matrix(0.13333333,0,0,-0.13333333,0,672)" />
    <path
       id="path47"
       d="m 2533.16,3580.9 c -4.59,3.64 -13.73,3.64 -13.73,-3.65 0,-6.65 17.35,-16.46 23.75,-12.81 6.39,3.66 -5.46,12.81 -10.02,16.46"
       style="fill:#231f20;fill-opacity:1;fill-rule:nonzero;stroke:none"
       transform="matrix(0.13333333,0,0,-0.13333333,0,672)" />
    <path
       id="path48"
       d="m 3478.95,1903.64 c -1.05,2.03 -3,3.37 -5.23,3.68 -32.08,4.31 -60.69,-0.65 -85.94,-13.08 -14.74,82.62 -96.76,142.84 -129.77,146.47 -2.78,0.3 -5.46,-1.07 -6.78,-3.49 -0.61,-1.05 -0.89,-2.2 -0.89,-3.36 0,-1.5 0.49,-3 1.46,-4.26 2.62,-3.36 3.78,-8.15 3.78,-13.7 0,-14.45 -7.88,-34.04 -18.33,-47.17 l -4.75,-5.78 c -13.54,-16.58 -37.41,-46.46 -50.51,-77.72 -24.96,19.14 -59.6,27.53 -102.8,22.09 -2.25,-0.27 -4.24,-1.64 -5.29,-3.67 -1.03,-2.04 -1.03,-4.42 0.06,-6.42 l 6.09,-11.22 c 18.38,-33.59 30.52,-55.8 30.52,-133.56 0,-91.46 74.4,-165.87 165.86,-165.87 91.49,0 165.9,74.41 165.9,165.87 0,77.76 12.13,99.98 30.49,133.57 l 6.06,11.21 c 1.08,1.99 1.1,4.38 0.07,6.41 z m -86.12,-149.26 c 0,-71.07 -52.79,-124.67 -122.81,-124.67 -69.91,0 -122.63,54.55 -122.63,126.88 0,54.94 -10.55,84.93 -25.79,115.38 20.06,-3.88 39.35,-14.23 50.01,-30.61 -0.3,-4.33 -0.57,-8.65 -0.57,-12.86 0,-44.91 17.86,-83.02 48.25,-102.53 0.06,-0.08 0.12,-0.17 0.18,-0.23 -0.05,0.04 -0.05,0.08 -0.06,0.13 0.49,-0.33 0.83,-0.84 1.34,-1.14 2.97,-1.83 6.86,-1.14 9.02,1.61 0.99,1.27 1.48,2.76 1.48,4.26 0,1.79 -0.67,3.56 -2.01,4.9 -14.41,14.45 -27.06,44.97 -27.06,83.48 0,10.02 0.86,20.63 2.78,31.59 5.67,32.88 36.12,70.18 50.73,88.1 l 4.52,5.6 c 10.72,13.31 17.21,27.74 20.88,41.75 19.42,-13.69 56.85,-47.68 56.85,-112.1 0,-2.88 -0.13,-5.82 -0.27,-8.84 -18.27,-23.83 -28.56,-56.07 -28.56,-88.37 0,-15.9 2.41,-31.77 7.37,-46.47 1.07,-3.16 4.22,-5.11 7.5,-4.62 3.31,0.45 5.79,3.2 5.94,6.51 1.83,40.15 14.89,78.22 34.89,101.82 14.29,16.83 29.52,24.47 47.93,28.5 -10.67,-19.86 -19.91,-49.28 -19.91,-108.07"
       style="fill:#231f20;fill-opacity:1;fill-rule:nonzero;stroke:none"
       transform="matrix(0.13333333,0,0,-0.13333333,0,672)" />
    <path
       id="path49"
       d="m 3102.49,2172.86 c 1.06,2.01 1.09,4.39 0.07,6.4 -1.05,2.01 -3,3.4 -5.24,3.67 -32.04,4.3 -60.68,-0.68 -85.95,-13.1 -14.74,82.56 -96.8,142.85 -129.82,146.49 -2.75,0.28 -5.44,-1.07 -6.77,-3.49 -0.61,-1.05 -0.9,-2.23 -0.9,-3.36 0,-1.52 0.51,-3 1.47,-4.26 2.61,-3.36 3.8,-8.19 3.8,-13.73 0,-14.44 -7.89,-34.03 -18.34,-47.14 l -4.51,-5.55 c -13.59,-16.61 -37.57,-46.6 -50.71,-77.95 -24.97,19.1 -59.6,27.5 -102.81,22.12 -2.28,-0.27 -4.26,-1.64 -5.31,-3.67 -1.04,-2.03 -1.01,-4.42 0.05,-6.43 l 6.06,-11.17 c 18.37,-33.66 30.5,-55.93 30.5,-133.66 0,-91.48 74.43,-165.91 165.9,-165.91 91.46,0 165.88,74.43 165.88,165.91 0,77.71 12.16,99.95 30.52,133.61 z m -86.1,-142.89 c 0,-71.07 -52.79,-124.65 -122.82,-124.65 -69.9,0 -122.65,54.55 -122.65,126.88 0,54.94 -10.53,84.93 -25.77,115.37 20.09,-3.87 39.34,-14.22 50.04,-30.61 -0.32,-4.32 -0.61,-8.64 -0.61,-12.88 0,-44.92 17.91,-83 48.32,-102.53 0.03,-0.05 0.1,-0.16 0.13,-0.22 -0.02,0.03 0,0.1 -0.03,0.13 0.47,-0.32 0.82,-0.82 1.34,-1.12 2.99,-1.83 6.86,-1.14 9.04,1.61 0.96,1.27 1.45,2.76 1.45,4.26 0,1.78 -0.69,3.56 -2,4.91 -14.44,14.39 -27.1,44.92 -27.1,83.47 0,10.06 0.85,20.64 2.75,31.61 5.71,32.85 36.21,70.16 50.86,88.09 l 4.46,5.5 c 10.64,13.34 17.14,27.78 20.85,41.84 19.45,-13.69 56.82,-47.69 56.82,-112.08 0,-2.9 -0.1,-5.9 -0.26,-8.9 -18.24,-23.84 -28.54,-56.08 -28.54,-88.34 0,-15.93 2.39,-31.8 7.36,-46.46 1.05,-3.17 4.22,-5.11 7.53,-4.65 3.28,0.48 5.77,3.21 5.91,6.54 1.84,40.16 14.88,78.22 34.9,101.78 14.26,16.79 29.48,24.43 47.91,28.52 -10.66,-19.93 -19.89,-49.35 -19.89,-108.07"
       style="fill:#231f20;fill-opacity:1;fill-rule:nonzero;stroke:none"
       transform="matrix(0.13333333,0,0,-0.13333333,0,672)" />
    <path
       id="path50"
       d="m 2726.49,2448.44 c 1.08,2 1.1,4.38 0.06,6.4 -1.03,2.02 -2.99,3.4 -5.25,3.68 -32.07,4.28 -60.69,-0.67 -85.91,-13.11 -14.79,82.56 -96.81,142.82 -129.81,146.47 -2.75,0.31 -5.45,-1.05 -6.79,-3.48 -0.59,-1.06 -0.86,-2.21 -0.86,-3.37 0,-1.5 0.5,-3 1.44,-4.25 2.64,-3.37 3.81,-8.18 3.81,-13.73 0,-14.45 -7.87,-34.03 -18.35,-47.17 l -4.48,-5.47 c -13.58,-16.62 -37.59,-46.59 -50.76,-77.96 -25,19.09 -59.64,27.53 -102.81,22.09 -2.28,-0.27 -4.26,-1.66 -5.31,-3.69 -1.04,-2.03 -1.03,-4.41 0.07,-6.41 l 6.06,-11.22 c 18.39,-33.65 30.51,-55.87 30.51,-133.63 0,-91.46 74.43,-165.86 165.89,-165.86 91.49,0 165.88,74.4 165.88,165.86 0,77.72 12.15,99.94 30.51,133.59 z m -86.07,-142.9 c 0,-71.03 -52.81,-124.62 -122.79,-124.62 -69.95,0 -122.66,54.54 -122.66,126.86 0,54.88 -10.55,84.93 -25.79,115.37 20.04,-3.89 39.33,-14.24 50.04,-30.61 -0.34,-4.34 -0.59,-8.68 -0.59,-12.9 0,-44.86 17.86,-82.98 48.25,-102.54 0.05,-0.06 0.1,-0.16 0.18,-0.23 -0.05,0.04 0,0.08 -0.05,0.13 0.49,-0.33 0.82,-0.84 1.34,-1.14 2.95,-1.83 6.85,-1.14 9.01,1.6 1.01,1.26 1.48,2.78 1.48,4.27 0,1.77 -0.69,3.56 -2.03,4.87 -14.4,14.48 -27.05,45.04 -27.05,83.59 0,10.03 0.85,20.6 2.76,31.57 5.73,32.93 36.27,70.26 50.92,88.21 l 4.37,5.41 c 10.68,13.31 17.17,27.76 20.89,41.83 19.4,-13.68 56.78,-47.68 56.78,-112.03 0,-2.89 -0.12,-5.9 -0.27,-8.92 -18.25,-23.87 -28.53,-56.08 -28.53,-88.39 0,-15.93 2.39,-31.77 7.36,-46.5 1.05,-3.14 4.21,-5.08 7.49,-4.62 3.3,0.49 5.79,3.2 5.95,6.52 1.83,40.18 14.89,78.25 34.88,101.86 14.28,16.78 29.52,24.43 47.95,28.49 -10.68,-19.89 -19.89,-49.29 -19.89,-108.08"
       style="fill:#231f20;fill-opacity:1;fill-rule:nonzero;stroke:none"
       transform="matrix(0.13333333,0,0,-0.13333333,0,672)" />
    <path
       id="path51"
       d="m 2344.85,2182.93 c -32.01,4.3 -60.6,-0.68 -85.9,-13.1 -14.77,82.56 -96.78,142.85 -129.81,146.49 -2.75,0.28 -5.41,-1.07 -6.79,-3.49 -0.57,-1.05 -0.86,-2.23 -0.86,-3.36 0,-1.52 0.49,-3 1.44,-4.26 2.63,-3.36 3.81,-8.19 3.81,-13.73 0,-14.44 -7.87,-34.03 -18.36,-47.12 l -4.59,-5.63 c -13.56,-16.62 -37.5,-46.59 -50.64,-77.89 -24.97,19.1 -59.59,27.5 -102.81,22.12 -2.28,-0.27 -4.26,-1.64 -5.3,-3.67 -1.05,-2.03 -1.04,-4.42 0.07,-6.43 l 6.03,-11.22 c 18.41,-33.64 30.53,-55.88 30.53,-133.61 0,-91.48 74.43,-165.91 165.91,-165.91 91.46,0 165.9,74.43 165.9,165.91 0,77.76 12.11,100.01 30.51,133.66 l 6.06,11.17 c 1.09,2.01 1.09,4.39 0.07,6.4 -1.02,2.01 -2.99,3.4 -5.27,3.67 z m -80.88,-152.96 c 0,-71.07 -52.78,-124.65 -122.81,-124.65 -69.89,0 -122.63,54.55 -122.63,126.88 0,54.88 -10.54,84.9 -25.81,115.38 20.09,-3.88 39.35,-14.23 50.06,-30.61 -0.33,-4.36 -0.62,-8.68 -0.62,-12.92 0,-44.89 17.89,-83 48.28,-102.5 0.05,-0.05 0.12,-0.16 0.18,-0.22 -0.05,0.03 -0.03,0.1 -0.05,0.13 0.49,-0.32 0.84,-0.82 1.34,-1.12 2.97,-1.83 6.85,-1.14 9,1.61 1.02,1.27 1.51,2.76 1.51,4.26 0,1.78 -0.69,3.56 -2.03,4.89 -14.44,14.41 -27.09,44.94 -27.09,83.49 0,10.06 0.85,20.64 2.75,31.61 5.76,32.91 36.26,70.23 50.94,88.18 l 4.38,5.41 c 10.68,13.38 17.17,27.82 20.87,41.82 19.42,-13.69 56.82,-47.68 56.82,-112.08 0,-2.9 -0.1,-5.88 -0.27,-8.88 -18.23,-23.84 -28.54,-56.08 -28.54,-88.39 0,-15.88 2.39,-31.75 7.34,-46.41 1.08,-3.17 4.22,-5.11 7.53,-4.65 3.28,0.48 5.77,3.21 5.93,6.54 1.82,40.15 14.88,78.2 34.91,101.78 14.22,16.78 29.48,24.42 47.88,28.52 -10.66,-19.87 -19.87,-49.26 -19.87,-108.07"
       style="fill:#231f20;fill-opacity:1;fill-rule:nonzero;stroke:none"
       transform="matrix(0.13333333,0,0,-0.13333333,0,672)" />
    <path
       id="path52"
       d="m 1968.41,1907.32 c -32.11,4.31 -60.69,-0.67 -85.9,-13.08 -14.76,82.62 -96.78,142.84 -129.81,146.47 -2.74,0.3 -5.41,-1.07 -6.77,-3.49 -0.58,-1.05 -0.88,-2.2 -0.88,-3.36 0,-1.5 0.49,-3 1.45,-4.26 2.62,-3.36 3.8,-8.15 3.8,-13.7 0,-14.45 -7.88,-34.04 -18.36,-47.17 l -4.56,-5.61 c -13.59,-16.59 -37.52,-46.53 -50.66,-77.89 -24.98,19.11 -59.62,27.53 -102.84,22.09 -2.26,-0.27 -4.26,-1.64 -5.29,-3.67 -1.05,-2.01 -1.01,-4.42 0.05,-6.42 l 6.09,-11.19 c 18.37,-33.61 30.51,-55.83 30.51,-133.59 0,-91.46 74.4,-165.87 165.87,-165.87 91.49,0 165.91,74.41 165.91,165.87 0,77.75 12.14,99.94 30.5,133.56 l 6.09,11.22 c 1.09,1.99 1.09,4.38 0.08,6.41 -1.03,2.03 -3,3.37 -5.28,3.68 z m -80.88,-152.94 c 0,-71.07 -52.78,-124.67 -122.79,-124.67 -69.91,0 -122.65,54.55 -122.65,126.88 0,54.88 -10.54,84.9 -25.78,115.38 20.06,-3.87 39.32,-14.23 50.03,-30.61 -0.33,-4.33 -0.61,-8.65 -0.61,-12.86 0,-44.91 17.88,-83.02 48.29,-102.53 0.06,-0.08 0.11,-0.19 0.16,-0.23 -0.05,0.01 -0.03,0.08 -0.05,0.13 0.49,-0.33 0.81,-0.84 1.34,-1.14 2.98,-1.83 6.85,-1.14 9,1.61 1.02,1.27 1.51,2.76 1.51,4.26 0,1.79 -0.69,3.56 -2.03,4.9 -14.44,14.45 -27.09,45.01 -27.09,83.53 0,10.03 0.85,20.59 2.77,31.54 5.71,33.01 36.28,70.37 50.96,88.31 l 4.37,5.39 c 10.67,13.34 17.15,27.74 20.84,41.75 19.42,-13.69 56.79,-47.68 56.79,-112.04 0,-2.9 -0.07,-5.86 -0.25,-8.9 -18.22,-23.83 -28.53,-56.04 -28.53,-88.34 0,-15.93 2.39,-31.8 7.38,-46.5 1.05,-3.16 4.22,-5.11 7.5,-4.62 3.28,0.45 5.79,3.2 5.92,6.51 1.82,40.15 14.88,78.2 34.91,101.82 14.29,16.83 29.52,24.47 47.91,28.5 -10.68,-19.86 -19.9,-49.28 -19.9,-108.07"
       style="fill:#231f20;fill-opacity:1;fill-rule:nonzero;stroke:none"
       transform="matrix(0.13333333,0,0,-0.13333333,0,672)" />
    <path
       id="path53"
       d="m 2212.93,3159.44 -0.73,16.5 h -724.58 l -0.72,-16.5 c -18.5,-415.1 90.78,-668.55 354.33,-821.8 l 8.68,-5.02 8.68,5.02 c 263.53,153.25 372.78,406.68 354.34,821.8 z m -363.02,-786.12 c -56.43,33.85 -105.25,72.81 -146.74,117.57 -110.22,131.72 -162.76,311.86 -162.76,559.31 0,22.72 0.73,46.35 1.62,70.24 27.43,0 537.23,0 637.29,0 0.48,-15.93 1.07,-32.01 1.07,-47.34 0,-346.05 -104.09,-563.97 -330.48,-699.78"
       style="fill:#231f20;fill-opacity:1;fill-rule:nonzero;stroke:none"
       transform="matrix(0.13333333,0,0,-0.13333333,0,672)" />
    <path
       id="path54"
       d="m 3560.23,3159.44 c -0.42,9.23 -8.03,16.5 -17.27,16.5 H 2851.4 c -9.22,0 -16.84,-7.27 -17.24,-16.5 -18.48,-415.1 90.83,-668.55 354.38,-821.8 5.35,-3.12 12,-3.12 17.35,0 263.52,153.25 372.8,406.7 354.34,821.8 z m -363.01,-786.12 c -56.38,33.81 -105.18,72.74 -146.67,117.46 -110.29,131.76 -162.88,311.97 -162.88,559.6 0,22.66 0.73,46.26 1.6,70.06 27.44,0 537.3,0 637.31,0 0.49,-15.98 1.09,-32.08 1.09,-47.44 0,-345.98 -104.1,-563.87 -330.45,-699.68"
       style="fill:#231f20;fill-opacity:1;fill-rule:nonzero;stroke:none"
       transform="matrix(0.13333333,0,0,-0.13333333,0,672)" />
    <path
       id="path55"
       d="m 2066.5,2637.55 -16.33,16.35 -37.11,37.11 v 278.93 c 0,4.34 -1.73,8.52 -4.81,11.62 l -16.32,16.31 -61.48,61.51 c -6.42,6.4 -16.83,6.4 -23.25,0 l -61.47,-61.51 c -6.4,-6.38 -6.4,-16.84 0,-23.23 l 31.21,-31.21 v -232.48 l -49.7,-49.7 -29.75,29.76 v 278.93 c 0,4.34 -1.74,8.52 -4.8,11.62 l -16.32,16.31 -61.46,61.51 c -6.45,6.4 -16.85,6.4 -23.26,0 l -61.48,-61.51 c -6.4,-6.38 -6.4,-16.84 0,-23.23 l 31.17,-31.21 v -278.91 c 0,-4.36 1.74,-8.56 4.84,-11.66 l 92.25,-92.23 23.05,-23.07 16.33,-16.34 c 3.11,-3.11 7.27,-4.85 11.64,-4.85 4.38,0 8.55,1.74 11.62,4.85 l 61.48,61.48 c 0,0 20.95,20.98 34.69,34.68 l 64.56,-64.56 c 3.08,-3.1 7.25,-4.81 11.61,-4.81 4.36,0 8.54,1.71 11.62,4.81 l 61.47,61.46 c 6.44,6.47 6.44,16.87 0,23.27 z m -380.46,30.35 v 285.75 l -2.42,2.43 -30.18,30.18 49.83,49.85 53.23,-53.23 v -282.38 -3.41 l 2.44,-2.41 62.51,-62.49 5.79,-5.83 5.8,5.83 66.13,66.1 2.43,2.41 v 3.4 246.16 3.39 l -2.43,2.43 -30.16,30.18 49.82,49.85 53.24,-53.23 v -282.38 -3.41 l 2.43,-2.41 52.42,-52.42 -48.45,-48.45 -62.86,60.67 -0.3,-0.32 -8.6,8.63 -5.8,5.8 -5.84,-5.8 -46.3,-46.33 c 0,0 -40.34,-40.34 -55.65,-55.67 l -107.08,107.11"
       style="fill:#231f20;fill-opacity:1;fill-rule:nonzero;stroke:none"
       transform="matrix(0.13333333,0,0,-0.13333333,0,672)" />
    <path
       id="path56"
       d="m 3371.52,2842.8 c -4.32,4.83 -8.84,9.63 -13.96,14.31 l 46.56,36.29 c 7.18,5.53 8.57,15.85 3.05,23.07 l -13.35,17.31 c -0.12,0.18 -0.15,0.4 -0.28,0.59 l -116.91,151.97 c -5.53,7.2 -15.87,8.54 -23.04,3 l -96.07,-73.85 -44.76,44.76 c -3.08,3.1 -7.28,4.81 -11.61,4.81 -4.38,0 -8.56,-1.71 -11.66,-4.81 l -61.44,-61.48 c -3.08,-3.08 -4.81,-7.26 -4.81,-11.62 0,-4.34 1.73,-8.55 4.81,-11.61 l 31.16,-31.22 v -332.4 c -16,-14.61 -28.87,-30.62 -37.02,-46.92 -3.15,-6.36 -1.91,-14.02 3.13,-19.03 l 16.25,-16.24 c 0.02,-0.04 0.02,-0.06 0.04,-0.08 l 20.1,-20.07 c 3.31,-3.3 7.82,-5.09 12.45,-4.82 4.67,0.26 9.01,2.47 11.92,6.08 54.93,67.61 135.56,54.93 190.98,12.36 5.13,-3.9 11.98,-4.47 17.68,-1.49 41.78,21.97 138.94,84 138.94,184.46 0,39.43 -12.19,92.07 -62.16,136.63 z m -290.56,-244.39 c 1.87,1.58 2.93,3.87 2.93,6.29 v 346.45 c 0,2.17 -0.89,4.26 -2.4,5.8 l -30.17,30.2 49.83,49.83 49.15,-49.16 c 2.92,-2.92 7.57,-3.24 10.83,-0.69 l 100.95,77.64 106.89,-138.94 -62.42,-47.96 c -2.14,-1.68 -3.32,-4.3 -3.15,-6.99 0.12,-2.7 1.64,-5.15 3.94,-6.59 56.62,-34.2 85.32,-81.92 85.32,-141.78 0,-83.92 -81.59,-138.57 -121.35,-160.28 -60.94,44.25 -151.24,57.56 -214.6,-12.81 l -9.53,9.56 c 7.78,13.64 19.23,27.17 33.78,39.43 z m 83.7,46.22 c 22.19,5.75 65.87,12.37 109.5,-7.7 3.02,-1.44 6.62,-0.84 9.05,1.44 26.16,24.44 38.58,55.2 36.87,91.36 -2.5,52.34 -45.16,84.98 -80.91,97.09 -2.53,0.84 -5.33,0.41 -7.5,-1.15 l -73.9,-54.13 c -2.13,-1.51 -3.36,-3.98 -3.36,-6.6 v -112.32 c 0,-2.54 1.14,-4.95 3.17,-6.51 2.01,-1.56 4.62,-2.09 7.08,-1.48 z m 108.85,19.13 c -24.2,9.11 -50.92,12.39 -78.12,10.39 v 66.12 l 59.68,43.67 c 8.49,-3.65 16.83,-8.5 24.42,-14.42 9.03,-11.55 15.19,-25.28 15.91,-40.95 1.22,-25.11 -6.16,-46.85 -21.89,-64.81 z m -114.63,141.74 c 2.77,-1.4 6.1,-1.11 8.6,0.69 l 124.12,90.84 c 1.78,1.27 2.98,3.26 3.29,5.45 0.31,2.21 -0.3,4.42 -1.65,6.19 l -68.43,89 c -2.81,3.62 -7.95,4.28 -11.55,1.5 l -55.68,-42.79 c -2.03,-1.56 -3.17,-3.96 -3.17,-6.5 v -137.04 c 0,-3.12 1.69,-5.94 4.47,-7.34 z m 36.51,51.66 v 68.29 l 33.83,26 34.21,-44.47 -68.04,-49.82"
       style="fill:#231f20;fill-opacity:1;fill-rule:nonzero;stroke:none"
       transform="matrix(0.13333333,0,0,-0.13333333,0,672)" />
    <path
       id="path57"
       d="m 2152.11,1157.16 c 0,-29.99 1.05,-32.06 46.59,-35.18 v -14.51 h -147.53 v 14.51 c 45.56,3.12 46.58,5.19 46.58,35.18 v 214.35 c 0,20.69 -2.07,22.79 -16.55,23.33 l -34.18,2.02 v 13.46 c 34.18,6.72 68.32,16.05 105.09,26.41 v -279.57"
       style="fill:#231f20;fill-opacity:1;fill-rule:nonzero;stroke:none"
       transform="matrix(0.13333333,0,0,-0.13333333,0,672)" />
    <path
       id="path58"
       d="m 2342.1,1302.15 c -35.21,16.56 -64.23,34.15 -64.23,68.32 0,20.71 12.45,46.57 42.46,46.57 20.74,0 45.59,-17.59 45.59,-54.85 0,-33.11 -12.43,-50.71 -23.82,-60.04 z m -16.59,134.58 c -56.43,0 -97.29,-41.89 -97.29,-89.01 0,-34.17 25.86,-60.08 57.97,-76.63 -15.53,-7.25 -40.38,-21.74 -48.67,-29.99 -9.3,-9.37 -20.7,-24.9 -20.7,-52.88 0,-55.87 45.55,-86.91 103.51,-86.91 46.6,0 107.68,33.1 107.68,99.41 0,46.54 -33.13,72.44 -69.36,92.1 23.82,14.52 36.76,24.86 41.43,30.01 9.32,10.39 14.47,24.89 14.47,39.9 0,41.39 -36.21,74 -89.04,74 z m 1.07,-315.79 c -27.97,0 -56.96,24.88 -56.96,69.36 0,32.15 13.45,58.01 36.23,71.47 36.25,-18.64 69.37,-38.32 70.4,-79.72 0,-39.35 -18.63,-61.11 -49.67,-61.11"
       style="fill:#231f20;fill-opacity:1;fill-rule:nonzero;stroke:none"
       transform="matrix(0.13333333,0,0,-0.13333333,0,672)" />
    <path
       id="path59"
       d="m 2498.43,1224.48 c 28.99,52.84 59,100.41 87.99,143.93 h 1.03 v -143.93 z m 110.77,209.16 c -49.7,-66.28 -99.4,-140.82 -151.15,-220.52 v -17.6 h 129.4 v -38.36 c 0,-29.99 -1.03,-32.06 -46.6,-35.18 v -14.51 h 142.87 v 14.51 c -41.39,3.12 -42.43,5.19 -42.43,35.18 v 38.36 h 47.63 v 28.96 h -47.63 v 209.16 h -32.09"
       style="fill:#231f20;fill-opacity:1;fill-rule:nonzero;stroke:none"
       transform="matrix(0.13333333,0,0,-0.13333333,0,672)" />
    <path
       id="path60"
       d="m 2845.24,1120.94 c -33.14,0 -59,43.54 -59,107.67 0,17.6 0,30.08 3.09,42.48 11.4,5.2 24.84,8.28 39.35,8.28 41.42,0 62.09,-39.34 62.09,-82.31 0,-37.78 -8.25,-76.12 -45.53,-76.12 z m 85.97,318.9 c -17.63,-2.07 -51.81,-9.82 -70.97,-16.57 -56.42,-19.66 -133.01,-79.73 -133.01,-192.55 0,-80.78 47.61,-129.41 108.69,-129.41 64.75,0 110.79,52.77 110.79,115.42 0,55.36 -38.3,96.82 -94.21,96.82 -10.37,0 -19.66,-4.19 -31.08,-9.36 l -28.98,-14.49 c 14.49,68.36 58.5,103.02 87.49,116.48 18.12,8.31 37.78,15.02 54.37,18.13 l -3.09,15.53"
       style="fill:#231f20;fill-opacity:1;fill-rule:nonzero;stroke:none"
       transform="matrix(0.13333333,0,0,-0.13333333,0,672)" />
    <path
       id="path61"
       d="m 3351.02,329.672 c -35.86,-0.391 -65.2,28.328 -65.59,64.187 -0.39,35.832 28.33,65.2 64.19,65.582 35.83,0.391 65.2,-28.351 65.59,-64.179 0.38,-35.864 -28.35,-65.203 -64.19,-65.59 z m -1.27,117.758 c -29.05,-0.321 -51.75,-23.86 -51.43,-53.442 0.32,-29.566 23.52,-52.636 52.57,-52.316 29.03,0.308 51.54,23.867 51.22,53.449 -0.32,29.57 -23.33,52.617 -52.36,52.309 z m 14.56,-87.688 -14.64,27.629 -8.95,-0.101 0.3,-27.778 -12.92,-0.14 -0.75,70.078 26.35,0.281 c 13.27,0.141 22.68,-9.609 22.81,-21.25 0.1,-9.852 -5.91,-16.379 -13.59,-19.152 l 15.91,-29.411 z m -12.11,59.028 -11.82,-0.129 0.23,-21.141 11.82,0.121 c 6.81,0.078 11.42,4.789 11.36,10.699 -0.07,5.91 -4.78,10.52 -11.59,10.45"
       style="fill:#231f20;fill-opacity:1;fill-rule:nonzero;stroke:none"
       transform="matrix(0.13333333,0,0,-0.13333333,0,672)" />
  </g>
</svg>
